<?xml version="1.0" encoding="utf-8"?>
<svg version="1.1" id="LOGO" xmlns="http://www.w3.org/2000/svg" x="0px"
     y="0px"
     viewBox="0 0 600 450" width="600" height="450" xml:space="preserve">
<style type="text/css">
	.st0{fill:#EA5B56;}
	.st1{fill:#5D5D5C;}
	.st2{fill:#FFFFFF;}
	.st3{fill:#EB5B56;}
	.st4{fill:none;}
</style>
    <rect style="width: 100%; height: 100%; fill: aliceblue;" rx="10" ry="10"/>
    <g transform="translate(-50,45), scale(2.1)">
	<g>
		<g>
			<circle class="st0" cx="65.45" cy="67.17" r="27.38"/>
            <path class="st1" d="M116.6,68.28c-3.13,0-5.88-0.67-8.19-1.98l-0.16-0.09v-4.99l0.49,0.34c2.03,1.44,4.33,2.17,6.84,2.17
				c3.17,0,4.72-0.77,4.72-2.36c0-0.72-0.26-1.3-0.8-1.77c-0.57-0.5-1.3-0.87-2.18-1.11c-0.93-0.25-1.93-0.56-2.99-0.9
				c-1.06-0.35-2.07-0.73-3-1.14c-0.97-0.43-1.79-1.11-2.43-2.01c-0.64-0.91-0.96-2.05-0.96-3.39c0-2.34,0.88-4.13,2.61-5.33
				c1.69-1.17,3.84-1.76,6.37-1.76c2.22,0,4.47,0.55,6.67,1.65l0.17,0.08v4.83l-0.47-0.3c-1.82-1.14-3.79-1.72-5.86-1.72
				c-1.29,0-2.39,0.21-3.28,0.63c-0.82,0.39-1.22,0.98-1.22,1.81c0,0.65,0.36,1.15,1.11,1.53c0.82,0.42,1.84,0.79,3.01,1.08
				c1.21,0.3,2.44,0.68,3.67,1.14c1.27,0.47,2.36,1.3,3.24,2.45c0.89,1.16,1.34,2.68,1.34,4.5c0,1.96-0.86,3.58-2.57,4.81
				C121.05,67.67,118.99,68.28,116.6,68.28z"/>
            <path class="st1" d="M142.15,68.28c-1.15,0-2.25-0.09-3.24-0.28c-1.01-0.19-2.06-0.56-3.11-1.11c-1.06-0.55-1.98-1.27-2.74-2.14
				c-0.75-0.87-1.38-2.06-1.85-3.55c-0.47-1.47-0.71-3.19-0.71-5.09c0-1.92,0.24-3.63,0.71-5.09c0.47-1.47,1.1-2.66,1.85-3.54
				c0.75-0.88,1.67-1.61,2.74-2.16c1.05-0.55,2.1-0.92,3.11-1.1c1-0.18,2.09-0.28,3.24-0.28c1.15,0,2.24,0.09,3.24,0.28
				c1.01,0.18,2.06,0.56,3.11,1.1c1.06,0.55,1.99,1.28,2.75,2.15c0.77,0.88,1.39,2.07,1.87,3.54c0.47,1.46,0.71,3.17,0.71,5.09
				c0,1.9-0.24,3.62-0.71,5.09c-0.48,1.49-1.1,2.68-1.87,3.55c-0.76,0.87-1.69,1.59-2.75,2.14c-1.05,0.55-2.1,0.92-3.11,1.11
				C144.4,68.19,143.31,68.28,142.15,68.28z M142.15,48.25c-0.79,0-1.48,0.05-2.07,0.15c-0.57,0.1-1.17,0.31-1.79,0.63
				c-0.6,0.31-1.09,0.74-1.46,1.27c-0.38,0.54-0.7,1.31-0.95,2.27c-0.26,0.97-0.39,2.15-0.39,3.51c0,1.7,0.18,3.12,0.53,4.22
				c0.34,1.07,0.84,1.87,1.5,2.36c0.67,0.51,1.36,0.86,2.06,1.04c0.71,0.18,1.58,0.28,2.57,0.28c0.81,0,1.52-0.05,2.1-0.15
				c0.57-0.1,1.17-0.3,1.78-0.62c0.59-0.31,1.08-0.74,1.45-1.29c0.38-0.56,0.71-1.34,0.96-2.32c0.26-0.99,0.39-2.17,0.39-3.53
				c0-1.68-0.18-3.09-0.53-4.19c-0.34-1.07-0.85-1.87-1.51-2.36c-0.68-0.51-1.38-0.85-2.06-1.02
				C144.04,48.34,143.17,48.25,142.15,48.25z"/>
            <polygon class="st1" points="189.51,68.01 189.51,49.01 181.74,49.01 181.74,44.22 202.31,44.22 202.31,49.01 194.51,49.01
				194.51,68.01 			"/>
            <polygon class="st1" points="230.07,68.01 224.84,52.48 219.6,68.01 214.65,68.01 206.64,44.22 211.67,44.22 217.03,61
				222.7,44.22 226.95,44.22 232.44,60.42 237.64,44.22 242.67,44.22 234.67,68.01 			"/>
            <polygon class="st1" points="278.87,68.01 278.87,57.86 269.03,44.22 275.08,44.22 281.37,53.4 287.62,44.22 293.67,44.22
				283.87,57.86 283.87,68.01 			"/>
            <polygon class="st1"
                     points="166.31,68.01 161.32,68.01 161.32,44.22 177.66,44.22 177.66,48.59 166.31,48.59 			"/>
            <path class="st1" d="M249.59,68.01h-5.37l9.93-23.79h5.22l9.93,23.79h-5.37l-7.17-17.92L249.59,68.01z"/>
            <path class="st1" d="M255.98,62.62h1.53c1.26,0,2.28-1.02,2.28-2.29c0-1.26-1.02-2.28-2.28-2.28h-1.53
				c-1.26,0-2.28,1.02-2.28,2.28C253.7,61.6,254.72,62.62,255.98,62.62"/>
            <path class="st1" d="M170.13,58.4h2.91c1.26,0,2.29-1.02,2.29-2.29c0-1.26-1.03-2.28-2.29-2.28h-2.91
				c-1.26,0-2.29,1.02-2.29,2.28C167.84,57.38,168.87,58.4,170.13,58.4"/>
            <g>
				<path class="st0" d="M109.28,94.5l0.77-16.6h3.56l4.33,7.79l4.23-7.79h3.58l0.77,16.6h-3.76l-0.47-10.85l-3.43,6.47h-1.94
					l-3.63-6.4l-0.42,10.78H109.28z"/>
                <path class="st0" d="M131.36,94.5V77.9h11.35v3.29h-7.59v3.24h5.9v3.19h-5.9v3.58h8.14v3.31H131.36z"/>
                <path class="st0" d="M147.66,94.5V77.9h6.27c1.71,0,3.23,0.29,4.57,0.88c1.34,0.59,2.39,1.5,3.15,2.74
					c0.76,1.24,1.14,2.83,1.14,4.77c0,1.83-0.39,3.35-1.16,4.57c-0.77,1.22-1.83,2.13-3.16,2.74c-1.34,0.61-2.86,0.91-4.57,0.91
					H147.66z M151.42,91.17h2.29c1.66,0,2.94-0.44,3.83-1.32c0.9-0.88,1.34-2.07,1.34-3.58c0-1.53-0.41-2.75-1.24-3.67
					c-0.83-0.92-2.14-1.38-3.93-1.38h-2.29V91.17z"/>
                <path class="st0" d="M167.25,94.5V77.9h3.76v16.6H167.25z"/>
                <path class="st0" d="M188.53,89.1l2.56,2.34c-0.46,0.63-1.06,1.21-1.78,1.74c-0.72,0.53-1.53,0.96-2.43,1.27
					c-0.9,0.31-1.86,0.47-2.89,0.47c-1.68,0-3.16-0.37-4.44-1.12c-1.29-0.75-2.29-1.77-3.01-3.07c-0.72-1.3-1.08-2.79-1.08-4.47
					c0-1.23,0.21-2.38,0.62-3.45c0.41-1.07,1-2,1.75-2.8c0.76-0.8,1.66-1.42,2.71-1.87c1.05-0.45,2.22-0.67,3.5-0.67
					c1.53,0,2.87,0.28,4.03,0.85c1.16,0.56,2.12,1.38,2.89,2.44l-2.56,2.46c-0.5-0.7-1.09-1.26-1.77-1.68
					c-0.68-0.42-1.49-0.63-2.44-0.63c-1,0-1.85,0.24-2.58,0.71c-0.72,0.47-1.28,1.11-1.67,1.9c-0.39,0.8-0.58,1.68-0.58,2.64
					c0,0.98,0.19,1.86,0.58,2.64c0.39,0.78,0.94,1.4,1.65,1.85c0.71,0.46,1.55,0.68,2.51,0.68c0.8,0,1.46-0.11,1.99-0.32
					c0.53-0.22,0.98-0.49,1.36-0.83C187.85,89.85,188.2,89.49,188.53,89.1z"/>
                <path class="st0" d="M193.48,94.5l6.2-16.6h4.16l6.07,16.6h-4.11l-1.27-3.81h-5.85l-1.27,3.81H193.48z M199.56,87.78h4.08
					l-2.02-6.27L199.56,87.78z"/>
                <path class="st0" d="M213.57,94.5V77.9h3.76v13.27h7.94v3.34H213.57z"/>
			</g>
            <g>
				<g>
					<circle class="st2" cx="77.92" cy="54.72" r="2.49"/>
                    <path class="st2" d="M52.98,77.16c-1.38,0-2.49,1.12-2.49,2.49c0,1.38,1.12,2.49,2.49,2.49c1.38,0,2.49-1.12,2.49-2.49
						C55.47,78.28,54.36,77.16,52.98,77.16z"/>
                    <path class="st2" d="M71.68,64.69h-3.74c-1.38,0-2.49,1.12-2.49,2.49c0,1.38,1.12,2.49,2.49,2.49h3.74
						c2.07,0,3.74,1.67,3.74,3.74c0,2.07-1.67,3.74-3.74,3.74H60.46c-1.38,0-2.49,1.12-2.49,2.49c0,1.38,1.12,2.49,2.49,2.49h11.22
						c4.82,0,8.73-3.91,8.73-8.73C80.41,68.6,76.5,64.69,71.68,64.69z"/>
                    <path class="st2" d="M59.21,69.68h1.25c1.38,0,2.49-1.12,2.49-2.49c0-1.38-1.12-2.49-2.49-2.49h-1.25
						c-2.07,0-3.74-1.67-3.74-3.74c0-2.07,1.67-3.74,3.74-3.74h11.22c1.38,0,2.49-1.12,2.49-2.49c0-1.38-1.12-2.49-2.49-2.49H59.21
						c-4.82,0-8.73,3.91-8.73,8.73C50.49,65.77,54.39,69.68,59.21,69.68z"/>
				</g>
			</g>
		</g>
        <g>
			<g>
				<path class="st1" d="M121.41,116.74v-0.76h2.14v2.44c-0.23,0.21-0.53,0.4-0.92,0.56c-0.38,0.17-0.88,0.25-1.49,0.25
					c-0.64,0-1.19-0.14-1.65-0.42c-0.46-0.28-0.82-0.66-1.08-1.14s-0.38-1.03-0.38-1.63c0-0.45,0.07-0.86,0.22-1.25
					c0.15-0.39,0.35-0.73,0.63-1.03c0.27-0.3,0.6-0.53,0.97-0.69c0.38-0.16,0.79-0.25,1.25-0.25c0.43,0,0.8,0.06,1.11,0.19
					c0.31,0.13,0.57,0.29,0.77,0.47c0.21,0.19,0.37,0.37,0.49,0.54l-0.62,0.53c-0.1-0.14-0.22-0.28-0.38-0.43
					c-0.15-0.15-0.34-0.27-0.56-0.37c-0.22-0.1-0.49-0.15-0.8-0.15c-0.45,0-0.83,0.11-1.16,0.33c-0.33,0.22-0.58,0.51-0.75,0.88
					c-0.17,0.37-0.26,0.77-0.26,1.22c0,0.47,0.1,0.89,0.29,1.25c0.19,0.36,0.45,0.64,0.79,0.85c0.33,0.2,0.71,0.31,1.14,0.31
					c0.35,0,0.66-0.04,0.91-0.12c0.25-0.08,0.46-0.19,0.63-0.33v-1.25H121.41z"/>
                <path class="st1" d="M126.72,119.09v-6.11h1.95c0.52,0,0.93,0.09,1.24,0.27c0.31,0.18,0.54,0.4,0.67,0.68
					c0.14,0.27,0.21,0.56,0.21,0.85c0,0.39-0.09,0.74-0.27,1.04c-0.18,0.3-0.47,0.52-0.85,0.67l1.43,2.61h-0.99l-1.31-2.5h-1.23v2.5
					H126.72z M127.57,115.84h1.17c0.38,0,0.66-0.09,0.86-0.28c0.2-0.19,0.29-0.44,0.29-0.76c0-0.34-0.1-0.6-0.31-0.78
					c-0.21-0.19-0.49-0.28-0.86-0.28h-1.15V115.84z"/>
                <path class="st1" d="M136.6,119.24c-0.44,0-0.85-0.08-1.23-0.25c-0.38-0.16-0.71-0.4-0.99-0.69c-0.28-0.3-0.5-0.64-0.66-1.03
					c-0.16-0.39-0.24-0.8-0.24-1.25s0.08-0.86,0.23-1.25c0.16-0.39,0.38-0.73,0.66-1.02c0.28-0.29,0.62-0.52,0.99-0.69
					c0.38-0.16,0.79-0.25,1.23-0.25c0.44,0,0.85,0.08,1.23,0.25c0.38,0.16,0.71,0.39,0.99,0.69c0.28,0.29,0.51,0.63,0.66,1.02
					c0.16,0.39,0.24,0.8,0.24,1.25s-0.08,0.86-0.24,1.25c-0.16,0.39-0.38,0.73-0.66,1.03c-0.28,0.3-0.62,0.53-0.99,0.69
					C137.44,119.16,137.03,119.24,136.6,119.24z M136.6,118.42c0.45,0,0.83-0.11,1.16-0.33c0.33-0.22,0.59-0.51,0.77-0.88
					c0.18-0.36,0.28-0.76,0.28-1.19c0-0.44-0.09-0.84-0.27-1.2c-0.18-0.36-0.43-0.65-0.76-0.87c-0.33-0.22-0.72-0.32-1.17-0.32
					c-0.45,0-0.83,0.11-1.16,0.32c-0.33,0.22-0.59,0.51-0.76,0.87c-0.18,0.36-0.27,0.76-0.27,1.2c0,0.43,0.09,0.83,0.27,1.19
					c0.18,0.36,0.44,0.66,0.76,0.88C135.76,118.31,136.15,118.42,136.6,118.42z"/>
                <path class="st1" d="M142.65,116.76v-3.78h0.88v3.57c0,0.37,0.05,0.69,0.14,0.97c0.09,0.28,0.25,0.5,0.48,0.65
					c0.23,0.16,0.54,0.23,0.94,0.23c0.4,0,0.72-0.08,0.94-0.23c0.22-0.16,0.38-0.37,0.47-0.65c0.09-0.28,0.14-0.6,0.14-0.97v-3.57
					h0.88v3.78c0,0.46-0.09,0.88-0.26,1.26c-0.17,0.38-0.44,0.67-0.8,0.89c-0.36,0.22-0.81,0.33-1.37,0.33
					c-0.56,0-1.01-0.11-1.37-0.33c-0.36-0.22-0.63-0.52-0.8-0.89C142.74,117.64,142.65,117.22,142.65,116.76z"/>
                <path class="st1" d="M150.69,119.09v-6.11h1.93c0.42,0,0.76,0.06,1.03,0.17c0.27,0.11,0.49,0.26,0.65,0.44
					c0.16,0.18,0.27,0.38,0.34,0.6s0.1,0.43,0.1,0.64c0,0.4-0.09,0.74-0.27,1.02c-0.18,0.28-0.42,0.49-0.73,0.63
					c-0.31,0.14-0.67,0.21-1.07,0.21h-1.11v2.4H150.69z M151.56,115.93h1.1c0.38,0,0.67-0.1,0.88-0.29c0.2-0.2,0.31-0.46,0.31-0.8
					c0-0.34-0.1-0.61-0.31-0.82c-0.21-0.2-0.5-0.3-0.87-0.3h-1.1V115.93z"/>
                <path class="st1" d="M157.71,119.09v-6.11h3.85v0.78h-2.97v1.78h2.23v0.79h-2.23v1.98h3.19v0.79H157.71z"/>
                <path class="st1" d="M167.66,118.22l0.89-0.96c0.16,0.17,0.37,0.34,0.64,0.5c0.27,0.16,0.58,0.25,0.93,0.25
					c0.14,0,0.28-0.03,0.41-0.08c0.13-0.05,0.24-0.13,0.33-0.23c0.09-0.1,0.13-0.22,0.13-0.36c0-0.23-0.11-0.4-0.33-0.53
					c-0.22-0.13-0.57-0.25-1.04-0.37c-0.46-0.12-0.85-0.32-1.15-0.61c-0.31-0.29-0.46-0.67-0.46-1.14c0-0.34,0.08-0.66,0.25-0.94
					c0.17-0.28,0.41-0.51,0.74-0.69c0.33-0.17,0.74-0.26,1.24-0.26c0.42,0,0.76,0.05,1.05,0.16c0.28,0.11,0.51,0.22,0.68,0.35
					c0.17,0.13,0.29,0.23,0.36,0.31l-0.8,0.88c-0.14-0.1-0.31-0.22-0.53-0.35c-0.22-0.13-0.48-0.2-0.78-0.2
					c-0.2,0-0.38,0.06-0.55,0.17c-0.17,0.11-0.25,0.25-0.25,0.41c0,0.21,0.11,0.38,0.33,0.5c0.22,0.13,0.52,0.23,0.91,0.32
					c0.3,0.07,0.59,0.18,0.86,0.33c0.28,0.15,0.51,0.35,0.68,0.61c0.18,0.26,0.27,0.6,0.27,1.03c0,0.37-0.1,0.69-0.31,0.98
					c-0.21,0.29-0.49,0.51-0.84,0.68c-0.35,0.16-0.75,0.25-1.19,0.25c-0.4,0-0.76-0.05-1.07-0.15s-0.58-0.22-0.82-0.38
					C168.01,118.56,167.82,118.39,167.66,118.22z"/>
                <path class="st1" d="M178.28,119.24c-0.45,0-0.87-0.08-1.26-0.24c-0.38-0.16-0.72-0.39-1.01-0.68
					c-0.29-0.29-0.51-0.64-0.67-1.03c-0.16-0.39-0.24-0.81-0.24-1.26c0-0.46,0.08-0.88,0.24-1.27c0.16-0.39,0.38-0.73,0.67-1.02
					c0.29-0.29,0.62-0.52,1.01-0.68c0.39-0.16,0.81-0.24,1.26-0.24c0.45,0,0.87,0.08,1.25,0.24c0.38,0.16,0.72,0.39,1.01,0.68
					c0.29,0.29,0.51,0.63,0.67,1.02c0.16,0.39,0.24,0.81,0.24,1.27c0,0.45-0.08,0.87-0.24,1.26c-0.16,0.39-0.38,0.73-0.67,1.03
					c-0.29,0.29-0.63,0.52-1.01,0.68C179.15,119.16,178.73,119.24,178.28,119.24z M178.28,117.94c0.36,0,0.67-0.09,0.93-0.27
					c0.26-0.18,0.46-0.41,0.6-0.71c0.14-0.29,0.21-0.61,0.21-0.96s-0.07-0.67-0.21-0.96c-0.14-0.29-0.34-0.52-0.6-0.7
					c-0.26-0.17-0.57-0.26-0.93-0.26c-0.36,0-0.67,0.09-0.93,0.26c-0.26,0.17-0.46,0.41-0.6,0.7c-0.14,0.29-0.21,0.61-0.21,0.96
					s0.07,0.67,0.21,0.96c0.14,0.29,0.34,0.53,0.6,0.71C177.61,117.85,177.92,117.94,178.28,117.94z"/>
                <path class="st1" d="M184.24,119.09v-6.11h4.1v1.22h-2.72v1.38h2.07v1.18h-2.07v2.33H184.24z"/>
                <path class="st1" d="M192.58,119.09v-4.89h-1.98v-1.22h5.34v1.22h-1.97v4.89H192.58z"/>
                <path class="st1" d="M199.62,119.09l-1.53-6.11h1.48l0.9,4.42l1.07-4.26h1.26l1.08,4.26l0.89-4.42h1.43l-1.56,6.11h-1.46
					l-1.04-3.99l-1.06,3.99H199.62z"/>
                <path class="st1" d="M207.7,119.09l2.28-6.11h1.53l2.23,6.11h-1.51l-0.47-1.4h-2.15l-0.47,1.4H207.7z M209.94,116.61h1.5
					l-0.74-2.31L209.94,116.61z"/>
                <path class="st1"
                      d="M216.89,119.09v-2.56l-2.14-3.55h1.57l1.33,2.31l1.29-2.31h1.5l-2.14,3.54v2.56H216.89z"/>
                <path class="st1" d="M226.35,119.09l0.28-6.11h1.31l1.59,2.87l1.56-2.87h1.32l0.28,6.11h-1.38l-0.17-3.99l-1.26,2.38h-0.71
					l-1.34-2.35l-0.16,3.97H226.35z"/>
                <path class="st1" d="M235.62,119.09v-6.11h4.18v1.21H237v1.19h2.17v1.17H237v1.32H240v1.22H235.62z"/>
                <path class="st1" d="M242.76,119.09v-6.11h2.31c0.63,0,1.19,0.11,1.68,0.32s0.88,0.55,1.16,1.01c0.28,0.45,0.42,1.04,0.42,1.75
					c0,0.67-0.14,1.23-0.43,1.68c-0.28,0.45-0.67,0.78-1.16,1.01c-0.49,0.22-1.05,0.33-1.68,0.33H242.76z M244.15,117.86h0.84
					c0.61,0,1.08-0.16,1.41-0.49c0.33-0.32,0.49-0.76,0.49-1.32c0-0.56-0.15-1.01-0.46-1.35c-0.31-0.34-0.79-0.51-1.45-0.51h-0.84
					V117.86z"/>
                <path class="st1" d="M251.11,119.09v-6.11h1.38v6.11H251.11z"/>
                <path class="st1" d="M260.09,117.1l0.94,0.86c-0.17,0.23-0.39,0.45-0.65,0.64c-0.27,0.2-0.56,0.35-0.89,0.47
					c-0.33,0.12-0.68,0.17-1.06,0.17c-0.62,0-1.16-0.14-1.64-0.41c-0.47-0.28-0.84-0.65-1.11-1.13c-0.27-0.48-0.4-1.03-0.4-1.64
					c0-0.45,0.08-0.88,0.23-1.27c0.15-0.39,0.37-0.74,0.65-1.03c0.28-0.29,0.61-0.52,1-0.69c0.39-0.16,0.82-0.25,1.29-0.25
					c0.56,0,1.06,0.1,1.48,0.31c0.43,0.21,0.78,0.51,1.06,0.9l-0.94,0.91c-0.18-0.26-0.4-0.46-0.65-0.62s-0.55-0.23-0.9-0.23
					c-0.37,0-0.68,0.09-0.95,0.26c-0.27,0.17-0.47,0.41-0.61,0.7c-0.14,0.29-0.22,0.62-0.22,0.97c0,0.36,0.07,0.68,0.22,0.97
					c0.14,0.29,0.35,0.51,0.61,0.68c0.26,0.17,0.57,0.25,0.93,0.25c0.29,0,0.54-0.04,0.73-0.12c0.2-0.08,0.36-0.18,0.5-0.31
					S259.97,117.24,260.09,117.1z"/>
                <path class="st1" d="M263.06,119.09l2.28-6.11h1.53l2.23,6.11h-1.51l-0.47-1.4h-2.15l-0.47,1.4H263.06z M265.29,116.61h1.5
					l-0.74-2.31L265.29,116.61z"/>
                <path class="st1" d="M271.59,119.09v-6.11h1.38v4.88h2.92v1.23H271.59z"/>
			</g>
            <path class="st3" d="M110.81,123.95c-0.84,0-1.53-0.68-1.53-1.53v-12.79c0-0.84,0.68-1.53,1.53-1.53s1.53,0.68,1.53,1.53v12.79
				C112.33,123.26,111.65,123.95,110.81,123.95z"/>
		</g>
	</g>
        <rect class="st4" width="331.74" height="163.74"/>
</g>
</svg>
