<?xml version="1.0" encoding="utf-8"?>
<!-- Generator: Adobe Illustrator 24.2.3, SVG Export Plug-In . SVG Version: 6.00 Build 0)  -->
<svg version="1.1" id="Outline" xmlns="http://www.w3.org/2000/svg" xmlns:xlink="http://www.w3.org/1999/xlink" x="0px" y="0px"
	 viewBox="0 0 600 450" width="600" height="450" style="enable-background:new 0 0 512 512;" xml:space="preserve">
<style type="text/css">
	.st0{fill:#FF7900;}
	.st1{fill:#FFFFFF;}
</style>
	<rect style="width: 100%; height: 100%; fill: aliceblue;" rx="10" ry="10"/>
<g  transform="translate(-10,-90), scale(1.22)">
	<g>
		<path d="M181.2,227.6c2.7,0,5.2,0.2,7.4,0.7c2.2,0.5,4.1,1.3,5.7,2.3s2.8,2.5,3.7,4.3c0.9,1.8,1.3,4,1.3,6.7c0,2.9-0.7,5.2-2,7.2
			s-3.2,3.5-5.8,4.7c3.5,1,6.1,2.8,7.8,5.3c1.7,2.5,2.6,5.6,2.6,9.1c0,2.9-0.6,5.3-1.7,7.4c-1.1,2.1-2.6,3.8-4.5,5.1
			c-1.9,1.3-4,2.3-6.4,2.9c-2.4,0.6-4.9,1-7.4,1h-27.5v-56.8H181.2L181.2,227.6z M179.7,250.6c2.2,0,4.1-0.5,5.5-1.6
			c1.4-1.1,2.2-2.8,2.2-5.2c0-1.3-0.2-2.4-0.7-3.3c-0.5-0.9-1.1-1.5-1.9-2c-0.8-0.5-1.7-0.8-2.7-1c-1-0.2-2.1-0.3-3.2-0.3H167v13.3
			L179.7,250.6L179.7,250.6z M180.4,274.7c1.2,0,2.4-0.1,3.5-0.4c1.1-0.2,2.1-0.6,2.9-1.2c0.9-0.6,1.5-1.3,2-2.3
			c0.5-1,0.8-2.2,0.8-3.7c0-2.9-0.8-5-2.5-6.2c-1.6-1.3-3.8-1.9-6.5-1.9H167v15.6H180.4L180.4,274.7z"/>
		<path d="M235.5,284.4v-5.7h-0.2c-1.4,2.4-3.3,4.1-5.6,5.2c-2.3,1.1-4.6,1.6-7,1.6c-3,0-5.5-0.4-7.4-1.2c-1.9-0.8-3.5-1.9-4.6-3.4
			s-1.9-3.2-2.4-5.3c-0.5-2.1-0.7-4.4-0.7-7v-25.3h11.3v23.2c0,3.4,0.5,5.9,1.6,7.6s2.9,2.5,5.6,2.5c3.1,0,5.3-0.9,6.7-2.7
			c1.4-1.8,2.1-4.8,2.1-9v-21.5h11.3v41.1L235.5,284.4L235.5,284.4z"/>
		<path d="M263,274.2c0.5,0.9,1.2,1.6,2,2.2c0.8,0.6,1.7,1,2.7,1.2s2.1,0.4,3.2,0.4c0.8,0,1.6-0.1,2.5-0.3c0.9-0.2,1.7-0.5,2.4-0.9
			c0.7-0.4,1.3-0.9,1.8-1.6c0.5-0.7,0.7-1.5,0.7-2.5c0-1.7-1.1-3-3.4-3.8c-2.3-0.9-5.4-1.7-9.4-2.5c-1.6-0.4-3.2-0.8-4.8-1.3
			c-1.6-0.5-3-1.2-4.2-2s-2.2-1.9-2.9-3.1s-1.1-2.8-1.1-4.6c0-2.7,0.5-4.8,1.6-6.5c1-1.7,2.4-3,4.1-4c1.7-1,3.6-1.7,5.7-2.1
			c2.1-0.4,4.3-0.6,6.5-0.6s4.4,0.2,6.5,0.6c2.1,0.4,4,1.1,5.6,2.2c1.7,1,3,2.3,4.1,4s1.7,3.8,2,6.3h-10.7c-0.2-2.2-1-3.6-2.5-4.4
			s-3.2-1.2-5.2-1.2c-0.6,0-1.3,0-2.1,0.1c-0.7,0.1-1.4,0.3-2,0.5c-0.6,0.3-1.1,0.7-1.6,1.2c-0.4,0.5-0.6,1.2-0.6,2
			c0,1,0.4,1.8,1.1,2.5c0.7,0.6,1.7,1.2,2.9,1.6c1.2,0.4,2.6,0.8,4.1,1.1c1.5,0.3,3.1,0.7,4.7,1c1.6,0.4,3.2,0.8,4.8,1.4
			s3,1.2,4.2,2.1c1.2,0.9,2.2,2,2.9,3.3c0.7,1.3,1.1,2.9,1.1,4.8c0,2.7-0.6,5-1.6,6.8c-1.1,1.8-2.5,3.3-4.3,4.4
			c-1.8,1.1-3.8,1.9-6,2.3c-2.3,0.5-4.5,0.7-6.9,0.7c-2.3,0-4.7-0.2-7-0.7c-2.3-0.5-4.3-1.3-6.1-2.4c-1.8-1.1-3.2-2.6-4.4-4.4
			c-1.1-1.8-1.8-4.1-1.9-6.9h10.7C262.3,272.3,262.5,273.3,263,274.2L263,274.2z"/>
		<path d="M295.2,236.9v-9.3h11.3v9.3H295.2z M306.5,243.3v41.1h-11.3v-41.1H306.5z"/>
		<path d="M324.6,243.3v5.7h0.2c1.4-2.4,3.3-4.1,5.6-5.2c2.3-1.1,4.6-1.6,7-1.6c3,0,5.5,0.4,7.4,1.2c1.9,0.8,3.5,2,4.6,3.4
			c1.1,1.5,1.9,3.2,2.4,5.3c0.5,2.1,0.7,4.4,0.7,7v25.3h-11.3v-23.2c0-3.4-0.5-5.9-1.6-7.6c-1.1-1.7-2.9-2.5-5.6-2.5
			c-3.1,0-5.3,0.9-6.7,2.7c-1.4,1.8-2.1,4.8-2.1,9v21.5h-11.3v-41.1H324.6L324.6,243.3z"/>
		<path d="M371.7,274.5c1.7,1.6,4.1,2.5,7.3,2.5c2.3,0,4.2-0.6,5.9-1.7c1.6-1.1,2.7-2.3,3-3.6h9.9c-1.6,4.9-4,8.4-7.3,10.6
			c-3.3,2.1-7.3,3.2-11.9,3.2c-3.2,0-6.1-0.5-8.8-1.6c-2.6-1-4.8-2.5-6.6-4.4c-1.8-1.9-3.2-4.2-4.2-6.8c-1-2.7-1.5-5.6-1.5-8.8
			c0-3.2,0.5-5.9,1.5-8.6c1-2.7,2.4-4.9,4.3-6.9c1.9-1.9,4.1-3.5,6.6-4.6s5.4-1.7,8.5-1.7c3.5,0,6.5,0.7,9.2,2
			c2.6,1.4,4.7,3.2,6.4,5.4c1.7,2.3,2.9,4.9,3.6,7.8c0.7,2.9,1,6,0.8,9.2H369C369.1,270.2,370,272.9,371.7,274.5L371.7,274.5z
			 M384.5,252.9c-1.4-1.5-3.4-2.2-6.2-2.2c-1.8,0-3.3,0.3-4.5,0.9s-2.2,1.4-2.9,2.3c-0.7,0.9-1.2,1.9-1.5,2.9
			c-0.3,1-0.5,1.9-0.5,2.7h18.4C386.8,256.6,385.9,254.4,384.5,252.9L384.5,252.9z"/>
		<path d="M413,274.2c0.5,0.9,1.2,1.6,2,2.2c0.8,0.6,1.7,1,2.7,1.2s2.1,0.4,3.2,0.4c0.8,0,1.6-0.1,2.5-0.3c0.9-0.2,1.7-0.5,2.4-0.9
			c0.7-0.4,1.3-0.9,1.8-1.6c0.5-0.7,0.7-1.5,0.7-2.5c0-1.7-1.1-3-3.4-3.8c-2.3-0.9-5.4-1.7-9.4-2.5c-1.6-0.4-3.2-0.8-4.8-1.3
			c-1.6-0.5-3-1.2-4.2-2s-2.2-1.9-2.9-3.1c-0.7-1.3-1.1-2.8-1.1-4.6c0-2.7,0.5-4.8,1.6-6.5c1-1.7,2.4-3,4.1-4c1.7-1,3.6-1.7,5.7-2.1
			c2.1-0.4,4.3-0.6,6.5-0.6s4.4,0.2,6.5,0.6c2.1,0.4,4,1.1,5.6,2.2s3,2.3,4.1,4s1.7,3.8,2,6.3h-10.7c-0.2-2.2-1-3.6-2.5-4.4
			c-1.5-0.8-3.2-1.2-5.2-1.2c-0.6,0-1.3,0-2.1,0.1c-0.7,0.1-1.4,0.3-2,0.5s-1.1,0.7-1.6,1.2c-0.4,0.5-0.6,1.2-0.6,2
			c0,1,0.4,1.8,1.1,2.5c0.7,0.6,1.7,1.2,2.9,1.6c1.2,0.4,2.6,0.8,4.1,1.1c1.5,0.3,3.1,0.7,4.7,1c1.6,0.4,3.2,0.8,4.8,1.4
			c1.6,0.5,3,1.2,4.2,2.1c1.2,0.9,2.2,2,2.9,3.3c0.7,1.3,1.1,2.9,1.1,4.8c0,2.7-0.6,5-1.6,6.8c-1.1,1.8-2.5,3.3-4.3,4.4
			c-1.8,1.1-3.8,1.9-6,2.3c-2.3,0.5-4.5,0.7-6.9,0.7s-4.7-0.2-7-0.7c-2.3-0.5-4.3-1.3-6.1-2.4c-1.8-1.1-3.2-2.6-4.4-4.4
			c-1.1-1.8-1.8-4.1-1.9-6.9h10.7C412.3,272.3,412.5,273.3,413,274.2L413,274.2z"/>
		<path d="M454.4,274.2c0.5,0.9,1.2,1.6,2,2.2s1.7,1,2.7,1.2s2.1,0.4,3.2,0.4c0.8,0,1.6-0.1,2.5-0.3c0.9-0.2,1.7-0.5,2.4-0.9
			c0.7-0.4,1.3-0.9,1.8-1.6c0.5-0.7,0.7-1.5,0.7-2.5c0-1.7-1.1-3-3.4-3.8c-2.3-0.9-5.4-1.7-9.4-2.5c-1.6-0.4-3.2-0.8-4.8-1.3
			c-1.6-0.5-3-1.2-4.2-2s-2.2-1.9-2.9-3.1c-0.7-1.3-1.1-2.8-1.1-4.6c0-2.7,0.5-4.8,1.6-6.5c1-1.7,2.4-3,4.1-4c1.7-1,3.6-1.7,5.7-2.1
			c2.1-0.4,4.3-0.6,6.5-0.6s4.4,0.2,6.5,0.6c2.1,0.4,4,1.1,5.6,2.2c1.7,1,3,2.3,4.1,4s1.7,3.8,2,6.3h-10.7c-0.2-2.2-1-3.6-2.5-4.4
			c-1.5-0.8-3.2-1.2-5.2-1.2c-0.6,0-1.3,0-2.1,0.1c-0.7,0.1-1.4,0.3-2,0.5s-1.1,0.7-1.6,1.2c-0.4,0.5-0.6,1.2-0.6,2
			c0,1,0.4,1.8,1.1,2.5c0.7,0.6,1.7,1.2,2.9,1.6c1.2,0.4,2.6,0.8,4.1,1.1c1.5,0.3,3.1,0.7,4.7,1c1.6,0.4,3.2,0.8,4.8,1.4
			s3,1.2,4.2,2.1c1.2,0.9,2.2,2,2.9,3.3c0.7,1.3,1.1,2.9,1.1,4.8c0,2.7-0.6,5-1.6,6.8c-1.1,1.8-2.5,3.3-4.3,4.4
			c-1.8,1.1-3.8,1.9-6,2.3c-2.3,0.5-4.5,0.7-6.9,0.7s-4.7-0.2-7-0.7c-2.3-0.5-4.3-1.3-6.1-2.4c-1.8-1.1-3.2-2.6-4.4-4.4
			c-1.1-1.8-1.8-4.1-1.9-6.9h10.7C453.6,272.3,453.9,273.3,454.4,274.2L454.4,274.2z"/>
	</g>
	<g>
		<rect x="31" y="208.7" class="st0" width="94.7" height="94.7"/>
		<g>
			<path class="st1" d="M68.1,294.2c-1.3,0.9-2.8,1.3-4.4,1.3c-2.5,0-3.9-1.6-3.9-3.8c0-3,2.7-4.5,8.3-5.1v-0.7c0-1-0.7-1.5-2.1-1.5
				s-2.4,0.5-3.2,1.5l-2.3-1.3c1.2-1.7,3.1-2.6,5.6-2.6c3.4,0,5.4,1.5,5.4,3.9c0,0,0,9.5,0,9.6h-3.1L68.1,294.2L68.1,294.2z
				 M63.3,291.4c0,0.9,0.6,1.7,1.6,1.7c1.1,0,2.2-0.5,3.2-1.4v-3.1C64.8,289,63.3,289.8,63.3,291.4L63.3,291.4z"/>
			<path class="st1" d="M74.3,282.5l2.9-0.4l0.3,1.6c1.6-1.2,2.9-1.8,4.5-1.8c2.7,0,4.1,1.4,4.1,4.3v9.2h-3.5v-8.6
				c0-1.6-0.4-2.3-1.7-2.3c-1,0-2.1,0.5-3.2,1.5v9.5h-3.5L74.3,282.5L74.3,282.5z"/>
			<path class="st1" d="M109.1,295.6c-3.9,0-6.2-2.5-6.2-6.8s2.3-6.9,6.1-6.9c3.8,0,6.1,2.4,6.1,6.7c0,0.2,0,0.5,0,0.7h-8.8
				c0,2.5,1.1,3.8,3.1,3.8c1.3,0,2.2-0.5,3-1.7l2.5,1.4C113.8,294.6,111.8,295.6,109.1,295.6L109.1,295.6z M111.6,287
				c0-1.8-1-2.8-2.7-2.8c-1.6,0-2.5,1-2.7,2.8H111.6L111.6,287z"/>
			<path class="st1" d="M42.7,295.7c-3.4,0-6.5-2.2-6.5-6.9c0-4.8,3.1-6.9,6.5-6.9s6.5,2.2,6.5,6.9
				C49.2,293.5,46.1,295.7,42.7,295.7z M42.7,284.7c-2.6,0-3.1,2.3-3.1,4c0,1.7,0.5,4,3.1,4s3.1-2.3,3.1-4
				C45.7,287.1,45.2,284.7,42.7,284.7z"/>
			<path class="st1" d="M51.5,282.1h3.3v1.6c0.6-0.8,2.2-1.8,3.6-1.8c0.1,0,0.3,0,0.5,0v3.2h-0.2c-1.5,0-3.2,0.2-3.7,1.4v8.8h-3.5
				V282.1L51.5,282.1z"/>
			<path class="st1" d="M94.6,292.5c2.6,0,2.9-2.7,2.9-4.4c0-2.1-1-3.7-2.9-3.7c-1.3,0-2.6,0.9-2.6,3.9
				C91.9,289.8,92,292.5,94.6,292.5L94.6,292.5z M100.8,282.1v12.5c0,2.2-0.2,5.8-6.4,5.9c-2.6,0-5-1-5.5-3.3l3.4-0.6
				c0.2,0.7,0.5,1.3,2.5,1.3c1.8,0,2.7-0.9,2.7-2.9v-1.5l-0.1-0.1c-0.6,1-1.4,1.9-3.4,1.9c-3.1,0-5.5-2.1-5.5-6.6s2.5-6.9,5.3-6.9
				c2.6,0,3.6,1.2,3.8,1.8h0l0.3-1.6H100.8L100.8,282.1z"/>
			<path class="st1" d="M116.4,277.7H115v3.8h-0.7v-3.8H113v-0.6h3.4L116.4,277.7L116.4,277.7z M122.1,281.5h-0.7v-3.6h0l-1.4,3.6
				h-0.5l-1.4-3.6h0v3.6h-0.7v-4.4h1.1l1.3,3.3l1.3-3.3h1.1L122.1,281.5L122.1,281.5z"/>
		</g>
	</g>
</g>
</svg>
