<svg version="1.0" xmlns="http://www.w3.org/2000/svg" viewBox="0 0 600 450" width="600" height="450">
    <style type="text/css">
        .st0{fill:#E52528;}
    </style>
    <g transform="translate(-33,-50), scale(1.1)">
        <path class="st0" d="M121.7,167.3c-32.1,0-58.1,26-58.1,58.1s26,58.1,58.1,58.1s58.1-26,58.1-58.1
        C179.8,193.3,153.8,167.3,121.7,167.3 M122,258.6c7.1-8,14.3-18.9,12.4-27.8c-1.5-9.1-8.3-12-12.7-11.9c-4.5-0.1-11.2,2.9-12.7,11.9
        c-1.9,8.9,5.3,19.8,12.4,27.8c-22.6-0.2-40.8-18.6-40.8-41.3c0-22.8,18.5-41.3,41.3-41.3c22.8,0,41.3,18.5,41.3,41.3
        C163.2,240.1,144.7,258.5,122,258.6 M359.3,260.1c-8.8,0-17.1-2.2-22.3-6c-6.6-4.7-10.3-13.5-10.3-24.7c0-21.1,10.3-31.3,31.7-31.3
        c21.4,0,31.7,10.3,31.7,31.7C390,249.7,379.5,260.1,359.3,260.1 M358.4,208.5c-11.6,0-16.6,6.2-16.6,20.5
        c-0.1,14.3,5.2,20.8,16.7,20.8c11.3,0,16.5-6.5,16.5-20.9C375,214.9,369.8,208.5,358.4,208.5 M430.5,248.1c-8.4,0-11.1-0.5-13.4-2.4
        c-2.2-1.9-2.8-3.2-3.1-9.2v-30.5c0-3.1-2.6-5.6-5.8-5.7h-7.7v32.7c0,10.2,1,14.7,4.5,18.7c3.9,4.6,9.8,6.7,19,6.7h18.3v-10.4
        L430.5,248.1L430.5,248.1z M511.4,200.4h-9.2c-3.6,0.1-6.6,2.1-7.9,5.1l-23,53h9.3c3.6,0,6.8-2.1,8.1-5.1l3.6-8.4h23.2l3.7,8.5
        c1.4,3,4.5,5,8,5h9.4L511.4,200.4L511.4,200.4z M495.2,234.7l8.7-20.4l8.7,20.4H495.2z M456.6,200.4c-3.2,0.1-5.8,2.5-5.8,5.6v52.5
        h7.6c3.2,0,5.8-2.5,5.9-5.6v-52.5H456.6L456.6,200.4z M253,200.5c-3.6,0.1-6.6,2.2-7.9,5.1l-14.2,35.8l-15.2-35.7
        c-1.3-3-4.4-5.1-8-5.2h-9.3l25.7,58.1h7.4c3.5-0.1,6.5-2.1,7.8-4.9l24-53.2H253L253,200.5z M283.7,217.3c2.3-4.6,6.9-6.3,15.4-6.4
        h17.7v-10.4h-23c-3.7,0-6.5,0.2-8.9,0.8c0,0-0.1,0-0.1,0c-1.7,0.4-3.2,1-4.6,1.7c-3.4,1.7-5.3,3.7-5.3,3.7c-2.1,2.1-3.9,4.7-5.2,7.7
        c-2.1,4.2-3,8.8-3,14.5v0.9c0,5.7,0.9,10.3,3,14.6c1.4,3.2,3.2,5.9,5.5,8c0,0,1.2,1.1,1.9,1.6c1.7,1.3,3.4,2.1,4.7,2.6
        c0.6,0.2,1.1,0.5,1.8,0.6c0.6,0.2,1,0.3,1,0.3c2.4,0.6,5.4,0.9,9.2,0.9h23v-10.3h-17.7c-8.5-0.1-13.1-1.8-15.4-6.4
        c-0.9-1.8-1.4-4-1.6-6.7v-0.5h33.2v-10h-33.2V224C282.4,221.2,282.9,219,283.7,217.3"/>
    </g>
</svg>
