<?xml version="1.0" encoding="utf-8"?>
<!-- Generator: Adobe Illustrator 26.5.0, SVG Export Plug-In . SVG Version: 6.00 Build 0)  -->
<svg version="1.1" id="Layer_1" xmlns="http://www.w3.org/2000/svg" xmlns:xlink="http://www.w3.org/1999/xlink" x="0px" y="0px"
	 viewBox="0 0 600 450" width="600" height="450" xml:space="preserve">
<style type="text/css">
	.st0{fill:#78578F;}
	.st1{fill:#CEC8D3;}
	.st2{fill:#9783A6;}
	.st3{fill:#FFFFFF;}
	.st4{fill:#563A69;}
	.st5{fill:#382C3F;}
	.st6{fill:#010101;}
</style>
<g id="XMLID_1_" transform="translate(25,-50), scale(1.05)">
	<path id="XMLID_2_" class="st0" d="M140.5,214.18c1.96-1.4,4.49-1.68,6.74-2.39c0,0.42,0,0.84,0,1.26c-0.56,0-1.26,0-1.82,0
		c-0.42,0.84-1.12,1.12-1.82,1.4c0-0.14,0-0.7,0-0.84c0,0-0.14,0-0.28,0c0,0.28,0,0.98,0,1.26c-0.14-0.14-0.56-0.56-0.7-0.7
		c0.42,0.7-0.28,1.54-0.98,1.54c-0.56-0.14-1.26-0.14-1.82-0.28c-0.28,0.42-0.42,0.84-0.7,1.26c-0.7,0.14-1.4,0.42-1.96,0.7
		c0.42,0.28,0.84,0.56,1.4,0.7c0,0.14,0,0.42,0,0.56c-0.7,0.28-1.4,0.56-2.25,0.42c0-0.28-0.14-0.84-0.14-1.26v-0.42
		c-0.98,0-1.96,0.42-2.67,1.12c-0.14-0.14-0.42-0.42-0.56-0.42l-0.42,0.14c-1.26,0-2.39,0-3.51,0.56c0.28,0.14,0.98,0.28,1.26,0.42
		c-1.12,0.42-2.25,0.56-3.37,0.28c0.14-0.14,0.42-0.42,0.42-0.56c0-0.14,0.14-0.7,0.14-0.84v-0.28c0.14-0.14,0.42-0.28,0.56-0.28
		c-0.14,0.42-0.56,1.54,0.42,1.26c0-0.14,0.14-0.42,0.28-0.56c0.28,0,0.42,0.14,0.7,0.14c0.14-0.7,1.12-0.84,1.68-0.7
		c0-0.56,0.14-1.12,0.14-1.54c0.42,0.42,0.28,0.84,0.28,1.4h0.28c0-0.14,0-0.56,0-0.84c0.56,0,1.12,0,1.82-0.14l-0.42,0.84
		c0.42-0.14,0.7-0.28,1.12-0.42c0.14-0.28,0.28-0.56,0.42-0.84c0.42,0,0.84,0,1.26,0.14c0-0.14-0.14-0.42-0.14-0.56
		c0.28,0.14,0.7,0.14,0.98,0.28c0-0.14,0.14-0.56,0.28-0.7c0.7,0,1.82-0.98,1.96,0.14c0-0.14-0.14-0.7-0.14-0.84
		C139.66,214.32,140.08,214.32,140.5,214.18z"/>
	<path id="XMLID_3_" class="st1" d="M131.24,215.16c1.26-0.28,0.14,1.54-0.28,0.42C130.95,215.44,131.24,215.16,131.24,215.16z"/>
	<path id="XMLID_4_" class="st2" d="M139.8,215.44c0.56,0.14,1.26,0.14,1.82,0.28c-0.56,0.56-1.26,0.84-1.96,1.26
		c0.56,0.14,0.98,0.14,1.54,0.14c-0.42,0.42-0.7,0.84-0.7,1.4c-0.42,0-0.84,0-1.26,0c-0.14-0.14-0.56-0.28-0.7-0.42
		c-0.56-0.14-0.98-0.42-1.4-0.7c0.7-0.28,1.4-0.42,1.96-0.7C139.23,216.29,139.51,215.87,139.8,215.44z"/>
	<path id="XMLID_5_" class="st1" d="M147.23,217.55c2.39-0.42,4.77-1.12,7.02-1.82c0,0.14-0.14,0.42-0.14,0.56
		c-0.84,0.42-1.82,0.56-2.67,0.84c-1.26,0.56-2.67,0.7-3.79,1.54c0,0.14,0.14,0.42,0.14,0.56c-0.14,0-0.42,0.14-0.42,0.14
		c0-0.28-0.14-0.84-0.14-1.12c-0.14,0-0.7,0-0.84-0.14C146.67,218.11,146.95,217.83,147.23,217.55z"/>
	<path id="XMLID_6_" class="st0" d="M143.16,216.85c0.28-0.28,0.56-0.7,0.84-0.98c0.84,0.42,1.54,0.7,2.39,1.12
		c-0.7,0.56-1.82,0.98-1.68,2.1c0.42-0.28,0.84-0.7,1.26-1.12c0,0.14,0,0.56,0,0.7c-0.42,0-0.7,0.28-0.84,0.7
		c0.42-0.14,0.84-0.14,1.12-0.42c0.14-0.14,0.56-0.28,0.7-0.42c0,0.42-0.14,0.84-0.14,1.26c-0.7,0.28-1.4,0.7-2.25,0.7
		c-0.84-0.14-1.54-0.42-2.39-0.7c0-0.28,0.14-0.7,0.14-0.98c-0.14-0.14-0.28-0.28-0.42-0.42c0.14-0.28,0.42-0.56,0.56-0.84
		c-0.14-0.28-0.28-0.7-0.42-0.98C142.46,216.99,142.88,216.99,143.16,216.85z"/>
	<path id="XMLID_7_" class="st1" d="M128.29,216.57c0.56,0.14,0,0.84-0.42,0.7C127.31,216.99,128.01,216.43,128.29,216.57z"/>
	<path id="XMLID_8_" class="st3" d="M133.34,218.67c0.7-0.7,1.54-1.12,2.67-1.12v0.42c-1.54-0.28-1.96,1.68-3.37,1.96
		c-0.28-0.42-0.56-0.7-0.7-0.98c0.14-0.14,0.42-0.56,0.7-0.7l0.42-0.14C133.06,218.39,133.34,218.67,133.34,218.67z"/>
	<path id="XMLID_9_" class="st1" d="M151.16,218.25c-0.14-0.7,0.7-0.56,1.26-0.42c0.7-0.14,1.26-0.14,1.96-0.14
		c-0.7,0.7-1.68,0.84-2.25,1.68c0.84,0,1.68-0.14,2.53-0.14c0.14,0.14,0.56,0.42,0.7,0.42c1.26-0.28,2.53-0.84,3.79-1.12
		c-0.7,1.12-2.25,1.26-3.37,1.82c-0.84-0.28-1.68-0.56-2.53-0.84c-0.28,0.28-0.56,0.56-0.84,0.84c-0.14-0.14-0.28-0.56-0.42-0.84
		c-0.28,0.14-0.56,0.14-0.84,0.28C151.02,219.37,151.16,218.81,151.16,218.25z"/>
	<path id="XMLID_10_" class="st1" d="M126.32,218.53c0.42-0.14,0.84-0.28,1.26-0.42c0,0.14-0.14,0.7-0.14,0.84
		c-0.14,0.14-0.42,0.42-0.42,0.56c-0.28,0-0.42,0.14-0.7,0.14C126.32,219.37,126.32,218.95,126.32,218.53z"/>
	<path id="XMLID_11_" class="st2" d="M128.99,218.95c1.12-0.56,2.25-0.56,3.51-0.56c-0.14,0.14-0.56,0.56-0.7,0.7
		c0.28,0.42,0.56,0.7,0.7,0.98c-0.56,0.28-1.12,0.42-1.54,0.7c-0.14-0.42-0.14-0.7-0.28-1.12c0,0.28,0,0.84,0,1.12
		c-1.26-0.56-2.67-0.14-3.65,0.7c0-0.42,0-0.7,0-1.12c-0.84,0.28-1.68,0.56-2.53,0.84c0.14-0.42,0.14-0.84-0.14-1.26
		c0.42-0.28,0.84-0.7,1.26-0.98c0.14,0.28,0.14,0.7,0,0.98c0.14,0,0.42,0,0.7,0c0.28,0,0.42-0.14,0.7-0.14
		c1.12,0.14,2.25,0.14,3.37-0.28C129.97,219.23,129.41,218.95,128.99,218.95z"/>
	<path id="XMLID_12_" class="st4" d="M132.64,220.08c1.4-0.42,1.82-2.25,3.37-1.96c0,0.28,0.14,0.84,0.14,1.26
		c0.7,0,1.54-0.14,2.25-0.42c0.14,0,0.56-0.14,0.7-0.14c0.42,0,0.84,0,1.26,0c0.14,0.14,0.28,0.28,0.28,0.42
		c0.56,0,0.98-0.14,1.4-0.14c0.14,0.14,0.28,0.28,0.42,0.42c0,0.28-0.14,0.7-0.14,0.98c-1.4,0-3.79,0.14-3.93,2.1
		c-0.42,0-0.7,0-0.98-0.14c0.14,0.14,0.42,0.42,0.42,0.56c0,0.28,0,0.7,0,0.98c-0.42,0-0.7,0-1.12,0c-0.28,0.42-0.56,0.7-0.7,0.98
		c-0.56-0.84-0.98-1.96-2.1-2.1c-0.56-0.14-0.84,0.42-1.12,0.56c-0.42,0.14-0.7,0.28-0.98,0.42c-0.14,0.14-0.7,0.28-0.84,0.42
		c0,0.14-0.14,0.56-0.14,0.7c0,0,0,0.14,0,0.28c0.14,0.28,0.28,0.84,0.42,1.12c-0.14,0.14-0.28,0.56-0.42,0.7
		c-0.56,0.14-1.12,0.14-1.54,0.42l-0.28,0.14c-0.28,0-0.56,0-0.84-0.14c-0.14,0.28-0.42,0.56-0.56,0.84c-0.14,0-0.56,0.14-0.7,0.14
		c-0.56,0.14-1.12,0.42-1.54,0.56c-0.28,0.56-0.56,1.12-0.98,1.68c-0.98,0.28-1.96,0.7-2.67,1.54c-0.42,0.14-0.7,0.28-0.98,0.42
		c-0.14-0.14-0.42-0.42-0.56-0.56c-1.12,0.42-2.25,0-3.23-0.56c0,0.42,0,0.7,0,1.12c-0.14,0-0.42-0.14-0.56-0.28
		c0-0.28-0.14-0.56-0.14-0.7c-0.28,0.14-0.56,0.14-0.84,0.28c0.14,0.42,0.28,0.84,0.42,1.26c-0.56,0.14-1.12,0.14-1.68,0.28
		c-0.56,0.98-1.12,1.96-1.54,2.95c-0.28,0.7-1.12,0.28-1.54,0.28c-0.98,0.56-1.54,1.54-1.82,2.67c-0.7,0-1.4-0.14-2.1-0.14
		c-0.56,1.82-2.67,1.96-3.93,3.23c-0.14-0.28-0.28-0.7-0.42-0.98c-0.42,0.28-0.84,0.56-1.26,0.7c0.42,0,0.7,0.14,1.12,0.14
		c-0.14,0.56-0.14,1.12-0.28,1.54c-0.84,0.14-1.54,0.42-2.25,0.7c-0.56-0.42-0.98-0.98-1.54-1.54c-0.42,0.98-1.26,1.96-0.42,2.95
		c0,0.28-0.14,0.56-0.14,0.7c-0.14-0.28-0.42-0.7-0.56-0.84c-0.14,0.28-0.42,0.42-0.56,0.7c0.14,0.14,0.56,0.56,0.7,0.7
		c-0.98,0.7-2.1,0.56-3.23,0.14c-0.14-0.14-0.28-0.7-0.42-0.84c-1.4,0.84-2.1,2.25-3.65,2.95c-1.54,0.98-3.65,1.54-4.35,3.51
		c0.56,0.14,1.12,0.14,1.68,0.28c-0.28,0.42-0.56,0.7-0.84,0.98c-0.14,0.84-0.14,1.82-0.14,2.67c0.56-0.14,1.26-0.28,1.54-0.84
		c0.42-0.84,1.26-1.26,1.96-1.82c0,0.42,0,0.7,0,1.12c-0.42,0-0.84,0.14-1.12,0.14c-0.7,1.12-1.4,2.25-2.25,3.23
		c0-0.42,0.14-0.84,0.14-1.4c-0.56-0.42-0.98-0.56-1.54-0.84c0-0.14,0-0.42,0-0.56c-0.84-0.56-1.96-0.7-2.95-0.42
		c0.14,0.14,0.28,0.42,0.42,0.56c-0.56,0-0.98,0.14-1.4,0.14c0,0.14,0,0.42,0,0.7c0.14,0.14,0.56,0.14,0.7,0.28
		c0,0.14,0.14,0.42,0.14,0.56c0.56-0.28,1.26-0.56,1.82-0.84c0,0.56,0,1.26,0,1.82c-0.98,0.42-2.1,0.7-3.09,0.84
		c0.14,0.28,0.42,0.56,0.56,0.7c-1.4,0.14-2.39,1.26-3.65,1.4c-1.26,0.28-2.53,0.84-3.79,1.26c0.14,0.14,0.56,0.42,0.84,0.56
		c-0.42,0-0.7,0.14-1.12,0.14c0.42,0.28,0.84,0.56,1.26,0.84c-0.14,0.56-0.14,1.26-0.56,1.54c-0.98,0.14-1.82-0.56-2.53-1.12
		c0.7,0.14,1.4,0.14,2.1,0.42c-0.7-1.12-0.14-2.39,0-3.51c-0.42,0.28-0.7,0.56-1.12,0.84c-0.14,0-0.56,0.14-0.7,0.28
		c-0.14,0.28-0.28,0.42-0.42,0.7c-0.14,0-0.42,0.14-0.56,0.14c0,0.7-0.14,1.54-0.42,2.25c0.42-0.14,0.7-0.14,1.12-0.28
		c-0.14,0.14-0.28,0.42-0.42,0.42c-0.56,0.14-1.26,0.42-1.82,0.7c-0.56-0.14-0.98-0.14-1.4-0.42c0.14-0.28,0.14-0.56,0.42-0.84
		c-0.14-0.14-0.14-0.28-0.28-0.42c0.28-0.14,0.56-0.28,0.7-0.42c0-0.28-0.14-0.56-0.14-0.84c0.14-0.14,0.28-0.42,0.42-0.7
		c-0.14,0-0.28-0.14-0.42-0.14c0.14-0.28,0.14-0.56,0.28-0.84l0,0c0.42-0.98,0.42-1.96,0.14-2.95c-0.28-0.84,0.28-1.4,0.56-2.1
		c-0.14-0.56-0.42-1.12-0.56-1.54c-1.12,0.7-1.96,1.82-3.37,1.68c0.28-0.14,0.84-0.28,1.12-0.28c-0.42-0.42-0.7-0.84-1.12-1.26
		c0.56-0.98,1.82-0.84,2.81-0.56c0-0.14,0.14-0.42,0.28-0.56c-0.56-0.56-0.98-1.26-1.26-1.96c-0.14-0.14-0.56-0.42-0.7-0.56
		c0.42,0,0.7-0.14,1.12-0.14c0.56,0.14,1.12,0.28,1.54,0.84c0.42,0.84,0.56,1.96,0.56,2.95l0.42-0.28c0.14-0.14,0.42-0.42,0.56-0.7
		c0.14,0,0.42-0.14,0.42-0.14c0.14-0.28,0.14-0.56,0.42-0.84c0.42,0,0.7-0.14,1.12-0.14c1.68-1.96,3.93-3.37,5.75-5.19
		c1.26-1.4,3.23-2.1,4.49-3.51c0,0.14,0,0.56,0.14,0.7c0,0.14-0.14,0.42-0.14,0.56c-0.14,0.56-0.56,1.12-1.26,1.4
		c-0.42,0.14-0.7,0.42-1.12,0.56c0.14,0.28,0.28,0.56,0.42,0.84c0.28-0.14,0.7-0.42,0.98-0.56c0.56,0.14,1.12,0.28,1.54,0.42
		c0.84-0.7,1.82-1.54,2.25-2.67c0.14,0.14,0.28,0.42,0.42,0.56c0.7-0.56,1.4-1.12,2.25-1.4c0.56-1.12,1.26-2.39,2.67-2.53
		c0.14,0.42,0.42,0.7,0.56,1.12c0.14-0.14,0.42-0.28,0.56-0.28c0-0.56,0-0.98,0-1.4c0.14-0.28,0.42-0.42,0.56-0.7
		c0-0.14-0.14-0.42-0.14-0.56c-0.14-0.14-0.28-0.56-0.42-0.7c-0.56-0.42-1.26-0.14-1.82,0c-0.14-0.14-0.28-0.42-0.42-0.56
		c0.7-0.28,1.4-0.56,2.1-0.84c-0.14,0.14-0.56,0.56-0.7,0.7c0.7-0.14,1.54-0.42,2.25-0.56c-0.14-0.28-0.42-0.7-0.56-0.98
		c0.56-0.42,1.12-0.42,1.82-0.56c0.14-0.42,0.28-0.7,0.42-0.98c0.14,0.28,0.28,0.56,0.42,0.84c0,0.14,0.14,0.42,0.14,0.56
		c-0.28,0.14-0.7,0.42-0.98,0.7c0,0.56,0.14,1.12,0.14,1.54c0.42,0.14,0.7,0.42,0.98,0.56c0,0.14,0,0.42,0,0.7
		c0.42,0.14,0.7,0.56,1.26,0.56c0.56-0.14,0.7-0.84,0.98-1.26c0.84,0,1.26-0.56,1.54-1.26c-0.42,0.14-0.84,0.42-1.26,0.7
		c0.14-0.42,0-1.26,0.56-1.26c0.7,0,1.4,0.42,2.1,0.7c-0.28-0.42-0.56-0.84-0.7-1.4c0.7,0,1.26,0,1.96,0.14
		c-0.7-0.42-1.68-0.84-1.96-1.68c0.56-0.42,1.4-0.14,1.96-0.14c0.28-0.7,0-1.4-0.28-1.96c1.26-0.7,2.81-0.7,3.93,0.28
		c0.14-0.14,0.42-0.42,0.56-0.56c0.28,0.14,0.7,0.28,0.98,0.42c0.14-0.56,0.42-0.98,0.7-1.54c0.14,0,0.56-0.14,0.7-0.28
		c0-0.28,0-0.56,0-0.7c0.42,0,0.84-0.14,1.4-0.14c0.14,0.98,0.28,1.96,0.84,2.67c0.28-0.42,0.42-0.84,0.7-1.26
		c0.28,0.14,0.56,0.28,0.7,0.42c0-0.28,0.14-0.7,0.14-0.98c-0.42-0.14-0.84-0.28-1.26-0.56c0.28-1.12,0.84-2.1,2.1-2.25
		c-0.14-0.14-0.42-0.56-0.56-0.7c0.42,0,0.84,0,1.26-0.14c0.14-0.56,0.42-1.26,0.56-1.82c-0.84,0-1.54,0.56-2.1,1.26
		c-0.28-0.14-0.56-0.28-0.84-0.42c0.42-0.42,0.7-0.84,1.12-1.4c-0.7,0.28-1.54,0.56-2.25,0.84c0-0.14-0.14-0.56-0.14-0.7
		c0,0,0.14-0.14,0.28-0.14c0.56-0.7,1.4-0.7,2.25-0.84c-0.28,0-0.84,0-1.12-0.14c0.14-0.14,0.42-0.56,0.56-0.7
		c0.14-0.14,0.56-0.56,0.7-0.7c0,0.28,0,0.7,0,0.98c0.7-0.14,1.54-0.42,2.1-0.84c0-0.14,0-0.28,0-0.42c0.7,0.28,2.1,0.28,1.54-0.84
		c-0.14-0.14-0.42-0.28-0.7,0c0.42-0.56,0.98-0.84,1.54-1.26v0.14l-0.42,0.28l-0.14,0.42c0.56,0.84,1.12-0.14,1.54-0.42v0.56
		c0,0,0,0.14,0,0.28c-0.56,0-0.98,0.14-1.54,0.14c0,0,0,0.14,0,0.28c1.54,0.14,3.09-0.7,4.49-1.54c0.14-0.28,0.42-0.7,0.56-0.98
		c-0.56-0.14-0.84,0-1.12,0.56c0-0.28,0-0.7,0-0.98c0.28,0.14,0.56,0.14,0.84,0.28c0.28,0.14,0.7,0.28,0.98,0.42
		c0,0.42,0.14,0.84,0.14,1.26c0.42-0.42,0.42-0.84,0.56-1.26c0.56,0,1.26-0.14,1.68-0.56c0.14,0.42,0.28,0.7,0.42,1.12
		c0.14-0.14,0.28-0.28,0.42-0.42c0.98-0.84,2.39-1.26,3.65-0.7c0-0.28,0-0.84,0-1.12c0.14,0.42,0.14,0.7,0.28,1.12
		C131.66,220.5,132.08,220.22,132.64,220.08z"/>
	<path id="XMLID_13_" class="st1" d="M137.13,218.25c0.56-0.28,0.7,0.56,0.14,0.7C136.85,219.09,136.71,218.25,137.13,218.25z"/>
	<path id="XMLID_14_" class="st1" d="M138.39,218.11c0.14,0.14,0.56,0.28,0.7,0.42c-0.14,0-0.56,0.14-0.7,0.14
		C138.39,218.67,138.39,218.25,138.39,218.11z"/>
	<path id="XMLID_15_" class="st2" d="M146.53,218.39c0.14,0,0.7,0,0.84,0.14c0,0.28,0.14,0.84,0.14,1.12c0.14,0,0.42-0.14,0.42-0.14
		c0.56-0.14,1.12-0.42,1.54-0.84c0.56,0.42,1.12,0.14,1.68-0.14c0,0.56-0.14,1.12-0.14,1.54c0.28-0.14,0.56-0.14,0.84-0.28
		c0.14,0.14,0.28,0.56,0.42,0.84c0.28-0.28,0.56-0.56,0.84-0.84c0.84,0.28,1.68,0.56,2.53,0.84c-1.26,0.28-2.53,0.84-3.65,1.4
		c0,0.28,0.14,0.84,0.28,1.12c-0.42,0-0.7,0-1.12,0c-0.28-1.12-0.42-2.1-0.42-3.09c-0.14-0.14-0.42-0.28-0.56-0.42
		c0.14,0.7,0.14,1.54,0,2.25c-0.42-0.14-0.84-0.14-1.26-0.28c-0.84,0.14-1.54,0.28-2.39,0.14c0,0.28,0,0.56,0.14,0.84
		c-0.14,0-0.42,0-0.56-0.14c-0.14-0.42-0.28-0.84-0.42-1.26c-0.14,0.14-0.28,0.56-0.42,0.84c-0.28,0-0.56,0-0.84,0
		c0.28,0.42,0.42,0.84,0.7,1.26c-0.14,0-0.56,0.14-0.7,0.14c0,0.7,0,1.4-0.14,1.96c-0.42-0.14-0.84-0.28-1.26-0.42
		c-0.56,0.28-0.98,0.7-1.54,0.98c-0.7-0.14-1.26-0.28-1.96-0.42c-0.14,0.14-0.28,0.42-0.42,0.56c-0.56,0.14-1.12,0.42-1.68,0.56
		c0.56,1.12,0.56,2.25,0,3.37c0.84-0.14,1.68-0.42,2.67-0.14c-1.12,0.42-2.39,1.26-3.65,0.7c0,0.28,0,0.42-0.14,0.7
		c-0.28-0.42-0.56-0.98-0.98-1.26c0,1.12,0.42,2.1,0.84,3.09c-0.56-0.28-0.98-0.56-1.54-0.84c-0.14,0.42-0.28,0.7-0.42,1.12
		c0-0.42-0.14-0.84-0.14-1.26c-0.14,0.14-0.42,0.28-0.56,0.42c-0.28-0.28-0.42-0.56-0.7-0.84c-0.42,0.84-0.7,1.68-0.98,2.53
		c-0.14-0.28-0.42-0.56-0.56-0.84c-1.12,0.14-2.25,0.56-3.09,1.26c0.14,0.14,0.42,0.56,0.42,0.84c0.56,0.14,1.26,0.28,1.82,0.42
		c-1.12-0.14-2.1,0.42-2.81,1.12c0,0.14-0.14,0.56-0.28,0.7c-0.7-0.14-1.54-0.28-2.25-0.42c0.98-0.84,1.96-1.54,2.67-2.67
		c-0.42-0.14-0.7-0.42-1.12-0.7c-1.12,0.98-1.82,2.25-2.81,3.37c0.14,0,0.7,0,0.84,0c-0.14,0.42-0.28,0.84-0.42,1.26
		c-0.28-0.28-0.56-0.7-0.84-0.98c-0.56,0.14-1.26,0.28-1.82,0.42c0.98-0.98,2.1-1.82,2.95-2.81c1.12-1.12,2.53-1.68,3.37-2.95
		c-0.14,0.56-0.28,1.12-0.42,1.54c0.42,0,1.12,0,1.54,0c0-0.56-0.14-1.26-0.14-1.82c0.14,0.14,0.42,0.56,0.42,0.7
		c1.26-1.12,2.81-1.82,3.93-2.95c0-0.28,0-0.42,0-0.7c0.14-0.14,0.42-0.28,0.56-0.42c0,0,0,0,0.14,0c0.42-0.42,0.7-0.7,1.12-0.98
		c0.28,0.14,0.56,0.14,0.84,0.28c0-0.28-0.14-0.7-0.14-0.98c0.56-0.42,1.12-0.7,1.26-1.4c-0.7,0.28-1.54,0.7-2.25,0.84
		c-0.7-0.84-1.54-1.82-2.81-1.54c0.56,0.42,1.12,0.84,1.68,1.26c0,0.56-0.14,0.98-0.42,1.4c-0.14,0-0.28,0.14-0.42,0.28l0.14-0.42
		c-0.56,0-1.12,0.14-1.82,0.14c0,0.28,0,0.56,0,0.84c-1.12,0.7-2.25,1.26-3.23,1.96c0,0.14,0,0.42,0,0.56
		c-0.56,0.84-1.68,1.4-2.53,2.1c-0.7,0.56-1.4,1.26-2.1,1.96c-0.42,0-0.84-0.14-1.26-0.14c-0.28,0.7-1.4,1.26-1.82,0.42
		c0,0.56-0.42,0.98-0.7,1.4h0.42c-0.14,0.14-0.56,0.56-0.7,0.7c0.14,0,0.56,0,0.7,0c-0.84,0.84-1.82,1.68-2.53,2.67
		c0-0.42-0.56-0.84-0.98-0.56c-0.28,0.42,0.14,0.84,0.56,0.98c-0.28,0.42-0.56,0.7-0.7,1.12c-1.82-0.56-2.81,1.12-4.21,1.82
		c0.7-0.98,1.54-1.96,2.53-2.81c0-0.14,0-0.42,0-0.7c0.84-0.42,1.4-1.26,1.96-2.1c0.14,0,0.42-0.14,0.42-0.28
		c0.56-0.7,1.12-1.54,1.68-2.25c0.56,0,1.26-0.14,1.82-0.14c-0.14-0.28-0.42-0.56-0.56-0.7c0.42-0.14,0.7-0.14,1.12-0.28
		c-0.42-0.42-0.7-0.84-0.98-1.26l0.28-0.14c0.42-0.14,0.7-0.28,0.98-0.42c0,0.28,0,0.98,0,1.26c1.12-0.56,1.4-1.82,2.53-2.39
		c0.56-0.28,1.12-0.56,1.54-0.98c0.14-0.42-0.14-0.84-0.42-1.12c0.56-0.14,1.12-0.42,1.54-0.56c-0.28,0.42-0.56,0.84-0.7,1.26
		c0.28-0.14,0.7-0.28,0.98-0.42c0.14-0.42,0.42-0.84,0.84-1.12c0-0.14,0.14-0.56,0.14-0.84c0.28,0,0.56,0,0.84,0.14
		c-0.14,0.42-0.28,0.7-0.42,0.98c0.28,0.14,0.56,0.28,0.7,0.42c0-0.56,0-0.98,0-1.54c0.56-0.14,1.12-0.28,1.54-0.42
		c0.14-0.14,0.28-0.56,0.42-0.7c-0.14-0.28-0.28-0.84-0.42-1.12c0.42-0.28,0.98-0.7,1.4-0.84c-0.14-0.14-0.28-0.28-0.42-0.56
		c0.42-0.14,0.7-0.28,0.98-0.42c0.42-0.28,0.7-0.7,1.12-0.56c1.12,0.14,1.54,1.26,2.1,2.1c0.28-0.42,0.56-0.7,0.7-0.98
		c0.42,0,0.7,0,1.12,0c0-0.28,0-0.7,0-0.98c1.12,0,1.96-0.56,2.67-1.26c-0.7,0.14-1.26,0.98-2.1,0.84c0-1.96,2.39-2.1,3.93-2.1
		c0.84,0.28,1.54,0.56,2.39,0.7c0.84,0,1.54-0.42,2.25-0.7c0-0.42,0.14-0.84,0.14-1.26c-0.14,0.14-0.56,0.28-0.7,0.42
		C146.39,218.95,146.39,218.53,146.53,218.39z"/>
	<path id="XMLID_16_" class="st3" d="M130.95,219.09c0.14-0.42,0.42-0.56,0.7-0.28C131.66,219.37,131.38,219.37,130.95,219.09z"/>
	<path id="XMLID_17_" class="st3" d="M136.99,220.08c0.56-0.28,1.12-0.42,1.82-0.56c-0.28,0.7-0.42,1.68-1.26,1.82
		c-0.14-0.14-0.7-0.42-0.84-0.42C136.71,220.64,136.85,220.22,136.99,220.08z"/>
	<path id="XMLID_18_" class="st0" d="M150.04,219.51c0.14,0.14,0.42,0.28,0.56,0.42c0,1.12,0.14,2.1,0.42,3.09c0.42,0,0.7,0,1.12,0
		c0.56,0,1.4,0.14,1.82-0.56c0,0.14-0.14,0.56-0.14,0.7c-0.98,0.42-1.68,1.26-2.53,1.82c-0.14,0-0.56,0.14-0.84,0.14
		c-0.42,0.7-1.4,0.98-2.1,1.26c-1.12,0.42-2.25,1.12-3.37,1.82c0.56,0.28,1.12,0.42,1.68,0.42c-0.56,0.56-1.12,0.98-1.68,1.26
		c-1.12,0-2.1,0.84-2.95,1.54c-0.14,0-0.56-0.14-0.7-0.28c-0.14,0.56-0.56,1.12-1.26,0.98c0.14,0.14,0.42,0.28,0.7,0.42
		c-0.14,0.14-0.28,0.14-0.56,0.28c-0.28-0.42-0.7-0.42-1.12-0.56c-0.42-0.56-1.12,0.14-0.42,0.42h-0.42
		c-1.12,0.14-2.25,0.56-3.23,0.84c-0.14,0.7-0.14,1.4-0.28,2.1l0,0c-0.28,0-0.7,0.14-0.98,0.28c0.14-0.28,0.56-0.7,0.84-0.98
		c-0.42,0-1.12,0-1.54,0c-0.14,0.7-0.84,1.12-1.4,1.4c-0.84,0.56-1.54,1.12-2.25,1.68c-0.14-0.42-0.56-0.84-0.84-0.28
		c-0.28,0.56-0.56,0.98-0.7,1.54c0.14,0,0.7,0,0.84,0c0,0.28-0.14,0.56-0.14,0.84c0-0.14-0.14-0.56-0.28-0.7
		c-0.14,0-0.42,0.14-0.7,0.28c0-0.14,0-0.42,0-0.56h-0.42c0,1.26-1.4,1.68-1.26,2.95c0.56-0.28,1.4-0.14,1.54-0.98
		c0.14,0,0.42,0.14,0.56,0.14c0-0.14,0.14-0.56,0.28-0.84c0.42,0,0.84,0,1.4,0c0.14-0.28,0.42-0.56,0.56-0.84
		c0,0.14,0.14,0.42,0.14,0.56c-0.42,0.28-0.84,0.42-1.26,0.7c-0.14,0.14-0.42,0.42-0.42,0.56c-0.28,0-0.56-0.14-0.84-0.14
		c-0.42,0.28-0.84,0.56-1.4,0.7c-0.14,0.42-0.42,0.7-0.7,0.98c-0.14,0-0.56-0.14-0.84-0.14c0.14-0.56,0.28-1.12,0.42-1.68
		c-0.84,0.14-1.54,0.56-1.82,1.4c0-0.14,0-0.42,0-0.56c-0.7,0.56-1.4,1.12-2.25,1.54c-0.14-0.14-0.28-0.42-0.42-0.56
		c0,0.28,0.14,0.7,0.14,0.98c0.56-0.14,1.12-0.28,1.54-0.42c0.14,0,0.7,0,0.84,0c0,0.14,0,0.56,0,0.7c-0.7,0.42-1.68,0.56-2.25,1.26
		c0-0.28,0-0.98,0.14-1.26c-0.14,0.14-0.42,0.28-0.56,0.42c-0.14,0.42-0.28,0.84-0.42,1.26c-0.56,0-1.12,0-1.68,0
		c-0.42,0.56-0.98,1.26-1.68,1.54c-0.14,0-0.56-0.14-0.7-0.14c0.7-0.7,0.14-1.96,1.12-2.53c0,0.28,0,0.7,0,0.98
		c0.42,0,0.84-0.42,1.12-0.7c0.42,0.14,1.12,0.56,1.4,0c0.14-0.56,0.14-0.98,0.14-1.4c0.14-0.28,0.42-0.56,0.56-0.84
		c0.14,0,0.56-0.14,0.7-0.28c0.14-0.14,0.42-0.42,0.56-0.56c0.84-0.7,1.68-1.4,1.68-2.67c-0.42-0.14-0.84-0.14-1.26-0.42
		c0,0.28,0,0.56,0.14,0.84c-0.14,0-0.42-0.14-0.56-0.14c0-0.7-0.98-0.84-0.84,0c-0.42-0.14-0.7-0.42-1.12-0.56
		c0.7-0.42,1.26-0.84,1.82-1.4c0.56-0.14,1.26-0.28,1.82-0.42c0.28,0.28,0.56,0.7,0.84,0.98c0.14-0.42,0.28-0.84,0.42-1.26
		c0.14,0,0.28,0,0.42,0c0.7,0.14,1.54,0.28,2.25,0.42c0-0.14,0.14-0.42,0.28-0.7c0.7-0.7,1.68-1.26,2.81-1.12
		c-0.28,0.56-0.56,1.12-0.84,1.54c0.7-0.42,1.26-0.84,1.68-1.4c-0.14,0-0.7-0.14-0.84-0.14c-0.7-0.14-1.26-0.28-1.82-0.42
		c-0.14-0.14-0.42-0.56-0.42-0.84c0.84-0.7,1.96-1.12,3.09-1.26c0.14,0.28,0.42,0.56,0.56,0.84c0.28-0.84,0.56-1.68,0.98-2.53
		c0.14,0.28,0.42,0.56,0.7,0.84c0.14-0.14,0.42-0.28,0.56-0.42c0,0.42,0.14,0.84,0.14,1.26c0.14-0.42,0.28-0.7,0.42-1.12
		c0.56,0.28,0.98,0.56,1.54,0.84c-0.42-0.98-0.84-1.96-0.84-3.09c0.42,0.42,0.7,0.84,0.98,1.26c0-0.28,0-0.42,0.14-0.7
		c1.26,0.56,2.53-0.28,3.65-0.7c-0.84-0.14-1.82,0-2.67,0.14c0.56-1.12,0.56-2.25,0-3.37c0.56-0.14,1.12-0.42,1.68-0.56
		c0.14-0.14,0.28-0.42,0.42-0.56c0.7,0.14,1.26,0.28,1.96,0.42c0.56-0.28,0.98-0.7,1.54-0.98c0.42,0.14,0.84,0.28,1.26,0.42
		c0-0.7,0-1.4,0.14-1.96c0.14,0,0.56-0.14,0.7-0.14c-0.28-0.42-0.42-0.84-0.7-1.26c0.28,0,0.56,0,0.84,0
		c0.14-0.14,0.28-0.56,0.42-0.84c0.14,0.42,0.28,0.84,0.42,1.26c0.14,0,0.42,0,0.56,0.14c0-0.28,0-0.56-0.14-0.84
		c0.84,0.14,1.54,0,2.39-0.14c0.42,0.14,0.84,0.14,1.26,0.28C150.18,220.92,150.18,220.22,150.04,219.51z"/>
	<path id="XMLID_19_" class="st2" d="M120.29,220.64"/>
	<path id="XMLID_20_" class="st3" d="M140.64,221.34c0.42-0.84,1.54-1.12,2.39-0.7c0,0.14-0.14,0.42-0.28,0.56
		C142.18,221.2,141.48,221.34,140.64,221.34z"/>
	<path id="XMLID_21_" class="st0" d="M120.15,221.2c0.56,0.14,0.98,0.56,1.26,1.12c0-0.14,0-0.7,0-0.84
		c0.28,0.14,0.84,0.42,1.26,0.56c-1.4,0.84-2.81,1.68-4.49,1.54c0,0,0-0.14,0-0.28c0.56-0.14,0.98-0.14,1.54-0.14c0,0,0-0.14,0-0.28
		C119.87,222.32,120.01,221.76,120.15,221.2z"/>
	<path id="XMLID_22_" class="st3" d="M138.53,222.32c0.84,0,1.26-0.7,2.1-0.84c-0.7,0.7-1.54,1.26-2.67,1.26
		c-0.14-0.14-0.42-0.42-0.42-0.56C137.83,222.18,138.25,222.18,138.53,222.32z"/>
	<path id="XMLID_23_" class="st2" d="M115.66,223.58c0.14-0.14,0.28-0.42,0.42-0.42c0,0.14,0,0.56,0,0.7c0,0.14,0,0.28,0,0.42
		c-0.28,0-0.84-0.14-1.12-0.28l0.14,0.7h-0.98C113.97,223.72,114.96,223.58,115.66,223.58z"/>
	<path id="XMLID_24_" class="st1" d="M134.88,223.58c0.56,0,0.14,0.84-0.14,0.84C134.18,224.29,134.46,223.58,134.88,223.58z"/>
	<path id="XMLID_25_" class="st3" d="M130.95,224c0.14-0.14,0.7-0.28,0.84-0.42c0.14,0.14,0.28,0.28,0.42,0.56
		c-0.56,0.28-0.98,0.56-1.4,0.84c0,0,0-0.14,0-0.28C130.95,224.57,130.95,224.14,130.95,224z"/>
	<path id="XMLID_26_" class="st1" d="M111.31,225.97c0-0.84,1.4-0.98,2.1-1.12c-0.14,0.14-0.42,0.56-0.56,0.7
		c0.28,0,0.84,0,1.12,0.14c-0.84,0.14-1.68,0.14-2.25,0.84C111.59,226.39,111.45,226.11,111.31,225.97z"/>
	<path id="XMLID_27_" class="st3" d="M127.87,224.99c0.28-0.42,1.26-0.14,0.84,0.42C128.43,225.83,127.31,225.55,127.87,224.99z"/>
	<path id="XMLID_28_" class="st4" d="M132.22,224.71c1.26-0.14,2.1,0.7,2.81,1.54c-0.56,0.28-1.12,0.7-1.54,1.12
		c0.14-0.56,0.28-0.98,0.42-1.4C133.48,225.55,132.78,225.13,132.22,224.71z"/>
	<path id="XMLID_29_" class="st1" d="M131.52,225.27c0.42,0.14,0.56,0.28,0.14,0.7C131.38,225.83,131.24,225.69,131.52,225.27z"/>
	<path id="XMLID_30_" class="st3" d="M135.16,226.25c0.84-0.14,1.54-0.56,2.25-0.84c-0.14,0.7-0.7,1.12-1.26,1.4
		c0,0.28,0.14,0.7,0.14,0.98c-0.28-0.14-0.56-0.14-0.84-0.28c-0.42,0.42-0.84,0.7-1.12,0.98c0,0,0,0-0.14,0
		c-0.14,0.14-0.42,0.28-0.56,0.42c0,0.28,0,0.42,0,0.7c-1.12,1.26-2.53,1.96-3.93,2.95c-0.14-0.14-0.42-0.56-0.42-0.7
		c0,0.56,0.14,1.26,0.14,1.82c-0.42,0-1.12,0-1.54,0c0.14-0.56,0.28-1.12,0.42-1.54c-0.84,1.26-2.25,1.82-3.37,2.95
		c-0.98,0.98-1.96,1.82-2.95,2.81c-0.56,0.56-1.12,0.98-1.82,1.4c-0.14,0.42-0.14,0.84-0.28,1.26c-1.12,0.7-2.1,1.82-2.81,2.95
		c-0.28,0.56-0.98,0.56-1.54,0.84c0-0.28,0-0.7,0-0.98c0-0.7,0.14-1.26,0.42-1.82c0.28,0,0.7-0.14,0.84-0.28
		c0.28-0.42,0.42-0.84,0.7-1.12c0.14-0.14,0.28-0.28,0.42-0.42c0.84-0.84,1.54-1.82,2.53-2.67c0.7-0.42,1.26-0.98,1.82-1.54
		c-0.42,0-1.12,0-1.54,0l0.84,0.42c-0.56,0.14-1.12,0.28-1.68,0.42c0.42-0.42,0.7-0.84,0.7-1.4c0.56,0.84,1.54,0.28,1.82-0.42
		c0.42,0,0.84,0.14,1.26,0.14c0.7-0.7,1.26-1.26,2.1-1.96c0.84-0.7,1.82-1.12,2.53-2.1c1.68-0.84,3.37-1.96,4.91-3.09
		c0.14,0,0.28-0.14,0.42-0.28C134.18,226.95,134.6,226.53,135.16,226.25z"/>
	<path id="XMLID_31_" class="st0" d="M109.76,226.67c0-0.84,0.84-0.7,1.54-0.7c0.14,0.14,0.42,0.42,0.56,0.56
		c0,0-0.14,0.14-0.28,0.14c-0.98,0.7-1.82,1.54-2.53,2.53c-0.56-0.14-1.4-0.56-1.96,0c-1.12,0.84-2.25,1.68-3.65,1.82
		c-1.12,1.54-3.09,1.68-4.49,2.81c-0.14-0.14-0.42-0.56-0.56-0.7c0.42-0.28,0.7-0.56,1.12-0.7c1.54-0.7,2.81-1.82,4.21-2.67
		c1.54-0.7,2.67-1.96,4.35-2.53c0.28,0.28,0.56,0.56,0.84,0.84c-0.28-0.42-0.42-0.7-0.7-0.98
		C108.64,226.67,109.2,226.53,109.76,226.67z"/>
	<path id="XMLID_32_" class="st2" d="M130.25,226.11c1.12-0.28-0.14,1.4-0.42,0.42C129.97,226.39,130.11,226.25,130.25,226.11z"/>
	<path id="XMLID_33_" class="st5" d="M111.73,227.37c0.7-0.28,1.54-0.7,2.25-0.84c-0.42,0.42-0.7,0.84-1.12,1.4
		c0.28,0.14,0.56,0.28,0.84,0.42c0.56-0.7,1.26-1.26,2.1-1.26c-0.14,0.56-0.42,1.26-0.56,1.82c-0.42,0-0.84,0-1.26,0.14
		c0.14,0.14,0.42,0.56,0.56,0.7c-1.26,0.14-1.82,1.26-2.1,2.25c0.42,0.14,0.84,0.28,1.26,0.56c0,0.28-0.14,0.7-0.14,0.98
		c-0.28-0.14-0.56-0.28-0.7-0.42c-0.28,0.42-0.42,0.84-0.7,1.26c-0.56-0.84-0.7-1.68-0.84-2.67c-0.42,0-0.84,0.14-1.4,0.14
		c0,0.28,0,0.56,0,0.7c-0.14,0-0.56,0.14-0.7,0.28c-0.28,0.56-0.42,0.98-0.7,1.54c-0.28-0.14-0.7-0.28-0.98-0.42
		c-0.14,0.14-0.42,0.42-0.56,0.56c-1.12-0.98-2.67-0.84-3.93-0.28c0.28,0.56,0.56,1.26,0.28,1.96c-0.7,0-1.4-0.28-1.96,0.14
		c0.42,0.84,1.26,1.26,1.96,1.68c-0.7,0-1.26-0.14-1.96-0.14c0.28,0.42,0.56,0.84,0.7,1.4c-0.7-0.28-1.4-0.7-2.1-0.7
		c-0.56,0.14-0.42,0.84-0.56,1.26c0.42-0.14,0.84-0.42,1.26-0.7c-0.28,0.7-0.7,1.26-1.54,1.26c-0.28,0.42-0.42,1.12-0.98,1.26
		c-0.42,0.14-0.84-0.42-1.26-0.56c0-0.14,0-0.42,0-0.7c-0.42-0.14-0.7-0.42-0.98-0.56c0.28-0.14,0.56-0.42,0.7-0.7
		c0.56-0.14,0.98-0.28,1.54-0.42c0-0.28,0-0.84,0-1.12c-0.14,0-0.7,0-0.84,0h-0.42c-0.14-0.14-0.28-0.42-0.28-0.56
		c-0.14-0.28-0.28-0.56-0.42-0.84c0.84-0.7,1.82-1.12,2.53-2.1c0-0.14,0-0.42-0.14-0.56c0-0.14,0-0.28,0-0.42
		c0.14,0.14,0.42,0.56,0.56,0.7c1.4-1.12,3.51-1.26,4.49-2.81c1.4-0.14,2.53-0.84,3.65-1.82c0.56-0.56,1.26-0.14,1.96,0
		c0.7-0.98,1.54-1.82,2.53-2.53C111.59,226.81,111.59,227.23,111.73,227.37z"/>
	<path id="XMLID_34_" class="st1" d="M39.32,227.79c1.26,0,2.53,0,3.65-0.28c0.84-0.14,1.68,0,2.53,0.42
		c0.56,0.28,1.26,0.42,1.82,0.7l0.42,0.14c-1.82,0-3.79,0-5.61,0.14c0.84-0.14,1.82-0.28,2.67-0.42c-0.56-0.56-1.26-0.28-1.96-0.14
		c-1.12,0.14-2.25,0-3.51,0.14C39.18,228.21,39.32,227.93,39.32,227.79z"/>
	<path id="XMLID_35_" class="st3" d="M127.45,228.07c0.14-0.28,0.42-0.56,0.56-0.84c0,0.14-0.14,0.56-0.14,0.84
		c-0.42,0.28-0.7,0.7-0.84,1.12c-0.28,0.14-0.7,0.28-0.98,0.42c0.28-0.42,0.42-0.84,0.7-1.26
		C127.03,228.21,127.31,228.21,127.45,228.07z"/>
	<path id="XMLID_36_" class="st1" d="M128.99,227.23l0.28-0.14c0,0.56,0,0.98,0,1.54c-0.28-0.14-0.56-0.28-0.7-0.42
		C128.71,227.93,128.85,227.65,128.99,227.23z"/>
	<path id="XMLID_37_" class="st4" d="M131.66,227.37c0.56,0,1.12-0.14,1.82-0.14l-0.14,0.42c-1.54,1.12-3.23,2.1-4.91,3.09
		c0-0.14,0-0.42,0-0.56c1.12-0.7,2.1-1.26,3.23-1.96C131.66,227.93,131.66,227.65,131.66,227.37z"/>
	<path id="XMLID_38_" class="st4" d="M45.49,227.93c1.12-0.14,2.25-0.14,3.23,0.14c0.98,0.14,2.1,0.14,2.67,1.26
		c-0.84,0.14-1.54,0.28-2.39,0.42c0-0.28,0.14-0.56,0.14-0.84c0,0-0.14-0.14-0.14-0.28c-0.42,0.42-0.84,0.56-1.4,0.28l-0.42-0.14
		C46.62,228.35,46.05,228.21,45.49,227.93z"/>
	<path id="XMLID_39_" class="st5" d="M48.86,228.64c0,0,0.14,0.14,0.14,0.28c0,0.28-0.14,0.56-0.14,0.84
		c-0.14,0.28-0.14,0.56-0.14,0.84c0.42,0.14,0.84,0.28,1.12,0.42c0,1.54,0.7,2.95,1.54,4.21c-0.56,0.42-1.12,0.7-1.68,1.12
		c0.7,0.7,1.26,1.4,1.82,2.25c-0.14,0.98-0.28,1.96,0.14,2.95c0.42,0.98,0.14,2.1-0.14,3.09c-0.56,0.14-1.12,0.14-1.54,0.28
		c0.28,0.28,0.42,0.56,0.7,0.84c-0.28,0.56-0.56,1.12-0.84,1.68c0.14,0.14,0.28,0.42,0.42,0.42c-0.42,0.7-0.7,1.54-1.12,2.25
		c-0.14,0-0.42,0.14-0.42,0.14c0-0.28,0-0.84-0.14-1.12c-0.28-0.14-0.56-0.28-0.84-0.42c-0.84,0.56-1.96,0.42-2.95,0.56
		c-0.84,0.28-1.68,0.56-2.53,0.56c-1.26,0.56-2.53,0.84-3.93,1.12c-0.14,0.14-0.28,0.42-0.42,0.56c-0.42,0-0.84,0-1.26,0
		c-0.98,0.56-1.82,1.26-2.67,1.68c-1.26,0.56-2.53,0.84-3.65,1.68c-0.7,0.56-1.82,0.56-2.53,1.12c-1.12,0.7-2.1,1.54-3.23,2.1
		c-1.26,0.42-2.25,1.26-3.51,1.96c-1.12,0.42-2.25,0.84-3.37,1.26c-0.14-0.14-0.42-0.56-0.42-0.7c0.7-0.7,1.54-1.12,2.53-1.4
		c0-0.14,0.14-0.42,0.28-0.42c0.56-0.14,1.12-0.28,1.54-0.56c0.14-0.42,0.14-0.84,0.28-1.4c0.14,0,0.28,0.14,0.42,0.14
		c0.42,0.14,0.84,0.14,1.26,0.28c0-0.14,0.14-0.42,0.14-0.56c1.4-0.56,2.67-1.54,4.21-1.54c0.14-0.42,0.28-0.84,0.42-1.4
		c0.28,0.14,0.56,0.42,0.84,0.56c0.14-0.42,0.28-0.98,0.42-1.4c0.28-0.28,0.7-0.56,0.98-0.7c0-0.42-0.14-0.84-0.14-1.26l0.28,0.14
		c0.14,0.42,0.42,0.84,0.56,1.26c1.4-0.28,2.53-1.68,4.07-1.4c1.54-0.98,3.23-1.54,5.05-1.96c0.7-0.14,1.26,0,1.96,0.14
		c0.7-0.84,1.4-1.96,1.68-3.09c0.42-1.68,1.96-2.67,2.67-4.21c-0.7-0.56-1.26-0.98-1.96-1.4c0.42-0.14,0.7-0.42,1.12-0.56
		c-0.42-0.56-0.98-1.12-1.54-1.26c0.42-1.12,1.26-1.82,2.1-2.39c0.14-0.98,0-1.96-0.42-2.81c0.14-0.14,0.28-0.42,0.42-0.56
		c-0.7-0.42-2.1-1.12-1.26-2.1c-0.14-0.14-0.28-0.28-0.42-0.42c-1.4-0.14-2.81,0-4.21,0.56c-2.53,0.84-5.47,1.12-7.44,2.95
		c-0.42,0-0.98,0-1.4,0c0.28,0.42,0.56,0.84,0.84,1.4c0.42,0,0.7,0,0.98,0c-0.42,0.56-0.7,1.26-1.12,1.82c-0.28,0-0.56,0-0.7,0
		c0,0.28,0,0.56,0,0.84c-0.42,0-0.7,0-0.98,0c-0.28,1.12-1.12,1.96-1.54,2.95l-0.56-0.28c-0.42,0-0.7,0-1.12,0
		c-0.14,0.42-0.42,0.84-0.56,1.12c-0.42,0-0.84,0-1.26,0c-0.14,0.42-0.28,0.7-0.42,0.98c-0.42,0-0.7,0-1.12-0.14
		c-0.56,0.56-1.12,1.26-1.82,0.84c-1.54,0.56-3.09-0.28-4.07-1.4c0.84-0.42,1.68-0.84,1.96-1.82c-1.82,0.84-3.51,1.82-5.47,2.53
		c0-0.98,1.12-1.12,1.82-1.54c3.09-2.53,6.46-4.77,9.82-6.88c0.98-0.42,1.96-0.56,2.67-1.26c1.26-1.12,2.81-1.4,4.21-2.25
		l-0.14-0.56c-0.14,0-0.56-0.14-0.7-0.14c0,0,0-0.14,0.14-0.28c0.14,0,0.42,0.14,0.56,0.14c0.14,0.14,0.28,0.56,0.42,0.7
		c0.28-0.14,0.56-0.28,0.84-0.42c0.84-0.14,1.54-0.56,2.39-0.7c1.68-0.56,3.51-0.56,5.33-0.98c1.82-0.14,3.79-0.14,5.61-0.14
		C48.02,229.2,48.44,228.92,48.86,228.64z"/>
	<path id="XMLID_40_" class="st0" d="M134.18,228.5C134.18,228.5,134.32,228.5,134.18,228.5C134.32,228.5,134.18,228.5,134.18,228.5
		z"/>
	<path id="XMLID_41_" class="st2" d="M35.11,229.06"/>
	<path id="XMLID_42_" class="st0" d="M51.25,229.2c1.54,0.14,2.81,0.84,4.21,1.4c0.56,0.14,0.98,0.7,1.4,1.12
		c-0.7,0.28-1.4,0.56-2.1,0.7c0.56,0.14,1.26,0.42,1.82,0.7c-0.7,0-1.4,0-1.96-0.42c0.14-0.42,0.14-0.84,0.28-1.4
		c-0.56,0.14-1.12,0.42-1.54,0.56c0.42-0.28,0.7-0.56,0.98-0.84c-0.56-0.28-1.26-0.56-1.82-0.98c0,0.42,0,0.84,0,1.26
		c-0.28-0.42-0.28-1.4-0.84-1.4c-0.84-0.14-0.84,0.98-0.84,1.54c0.28,0.98,1.4,1.68,1.26,2.81c0.14,0.14,0.42,0.28,0.56,0.42
		c-0.42,0.84-0.84,1.68-1.26,2.67c0.14,0.28,0.42,0.56,0.56,0.7c0.14,1.12,0.7,2.25,0.84,3.37c0.42,0.14,0.7,0.14,1.12,0.28
		c-0.14,0.14-0.28,0.42-0.42,0.56c-0.42,0.14-0.7,0.14-1.12,0.28c0,1.12-0.42,2.1-0.84,2.95c0.42,0.56,0.84,0.98,1.12,1.54
		c-0.56,0.42-1.12,0.7-1.54,1.12c0,0.28,0,0.56,0.14,0.84c-0.42,0.42-0.84,0.84-1.26,1.4c-0.7,0.14-1.4,0.42-1.96,0.98
		c0-0.42,0.14-0.7,0.14-1.12c0.14,0,0.28-0.14,0.42-0.14c0.14,0,0.42-0.14,0.42-0.14c0.42-0.7,0.7-1.54,1.12-2.25
		c-0.14-0.14-0.28-0.42-0.42-0.42c0.28-0.56,0.56-1.12,0.84-1.68c-0.28-0.28-0.42-0.56-0.7-0.84c0.56-0.14,1.12-0.14,1.54-0.28
		c0.28-0.98,0.56-2.1,0.14-3.09c-0.42-0.98-0.42-1.96-0.14-2.95c-0.56-0.84-1.12-1.54-1.82-2.25c0.56-0.42,1.12-0.7,1.68-1.12
		c-0.84-1.26-1.4-2.67-1.54-4.21c-0.42-0.14-0.84-0.28-1.12-0.42c0-0.28,0.14-0.56,0.14-0.84C49.7,229.48,50.4,229.34,51.25,229.2z"
		/>
	<path id="XMLID_43_" class="st1" d="M54.05,229.06"/>
	<path id="XMLID_44_" class="st3" d="M124.36,230.46c0.28-0.56,0.56-1.12,0.98-1.68c0.28,0.28,0.56,0.7,0.42,1.12
		c-0.42,0.42-0.98,0.7-1.54,0.98c-1.12,0.56-1.4,1.82-2.53,2.39c0-0.28,0-0.98,0-1.26C122.39,231.16,123.38,230.74,124.36,230.46z"
		/>
	<path id="XMLID_45_" class="st1" d="M134.18,229.2"/>
	<path id="XMLID_46_" class="st4" d="M40.16,230.6c1.4-0.56,2.81-0.7,4.21-0.56c0.14,0.14,0.28,0.28,0.42,0.42
		c-0.84,0.98,0.7,1.68,1.26,2.1c-0.14,0.14-0.28,0.42-0.42,0.56c0.42,0.84,0.56,1.82,0.42,2.81c-0.84,0.56-1.68,1.4-2.1,2.39
		c0.7,0.28,1.26,0.7,1.54,1.26c-0.42,0.14-0.7,0.42-1.12,0.56c0.7,0.42,1.4,0.98,1.96,1.4c-0.7,1.54-2.1,2.67-2.67,4.21
		c-0.42,1.12-0.84,2.25-1.68,3.09c-0.56-0.14-1.26-0.28-1.96-0.14c-1.82,0.42-3.51,0.98-5.05,1.96c-1.54-0.28-2.67,1.12-4.07,1.4
		c-0.14-0.42-0.42-0.84-0.56-1.26c0.14,0,0.7,0.14,0.84,0.14c0-0.42,0-0.84,0-1.26c0.42-0.14,0.7-0.42,1.12-0.56
		c-0.42-0.14-0.84-0.28-1.26-0.42c0.28-0.42,0.7-0.84,0.98-1.26c0.56,0.42,0.98,0.7,1.54,0.98c0-0.42,0-0.7,0-0.98
		c0.42,0.14,0.7,0.28,0.98,0.42c0.7-0.56,1.26-0.14,1.82,0.42c0.42-0.14,0.7-0.14,0.98-0.28c0,0.14,0.14,0.28,0.14,0.42
		c0.42-0.28,0.84-0.56,1.4-0.56c0-0.14,0.14-0.56,0.14-0.7c0.7,0,1.26,0.14,1.96,0.14c0.56-1.26,0.84-2.67,0-3.79
		c-0.28,0.14-0.7,0.28-0.98,0.42c0.28-0.84,0.56-1.82,0.84-2.81c-0.28-0.28-0.56-0.42-0.84-0.7c0.28-0.14,0.56-0.28,0.84-0.42
		c0.28-0.7,0.7-1.4,1.12-1.96c-0.14-0.42-0.42-0.7-0.14-1.12c0.14-0.7,1.12-0.7,1.68-0.84c0-0.56,0-1.26,0-1.82
		c-0.56-0.28-1.4-0.42-1.54-1.26c0.42,0,0.7,0,0.98,0c0-0.14-0.14-0.42-0.14-0.56c-0.42,0.14-0.84,0.14-1.26,0.28
		c0-0.28,0-0.84,0-1.12c0.42-0.14,0.84-0.14,1.26-0.28c-0.14-0.14-0.14-0.42-0.28-0.56c-0.84,0.28-1.82,0.42-2.81,0.14
		c0,0.42,0,0.7-0.14,1.12c-0.84-0.7-1.54,0.14-2.25,0.56c0.14,0.42,0.42,0.7,0.56,0.98c-0.42-0.14-0.84-0.42-1.26-0.56
		c-0.14,0-0.28,0.14-0.42,0.28c-0.14-0.14-0.28-0.56-0.42-0.7c-0.56,0.28-1.26,0.56-1.68,0.98c-0.14,0.42,0,0.84,0,1.26
		c-0.42,0.28-0.7,0.56-1.12,0.84c0,0.28,0,0.56,0.14,0.7c-0.14,0.28-0.42,0.56-0.56,0.7c0.42,0.14,0.7,0.42,0.98,0.7
		c-0.28,0.42-0.56,0.84-0.84,1.26c-0.28-0.14-0.56-0.28-0.84-0.42c0,0.42,0,0.7,0,1.12c-0.28,0.14-0.56,0.28-0.7,0.56
		c-0.98-0.7-2.25-0.56-3.23,0.14c0.56-0.98,1.26-1.82,1.54-2.95c0.42,0,0.7,0,0.98,0c0-0.28,0-0.56,0-0.84c0.28,0,0.42,0,0.7,0
		c0.42-0.56,0.84-1.26,1.12-1.82c-0.42,0-0.7,0-0.98,0c-0.28-0.42-0.56-0.84-0.84-1.4c0.42,0,0.98,0,1.4,0
		C34.69,231.72,37.63,231.44,40.16,230.6z"/>
	<path id="XMLID_47_" class="st2" d="M50.69,231.58c0-0.56,0-1.68,0.84-1.54c0.7,0,0.56,0.98,0.84,1.4c0-0.42,0-0.84,0-1.26
		c0.56,0.28,1.26,0.56,1.82,0.98c-0.42,0.28-0.7,0.56-0.98,0.84c0.56-0.14,1.12-0.42,1.54-0.56c-0.14,0.42-0.14,0.84-0.28,1.4
		c0.56,0.42,1.26,0.56,1.96,0.42c-0.56-0.28-1.26-0.56-1.82-0.7c0.7-0.28,1.4-0.56,2.1-0.7h0.14c0.84,0.98,2.1,1.54,2.67,2.67v0.14
		c-0.28,0.7,0.42,1.26,0.84,1.82c0-0.14,0.14-0.56,0.14-0.7c0.14,0.28,0.42,0.56,0.56,0.84c0.14,0,0.7-0.14,0.84-0.14
		c0.42,1.54,1.4,2.67,2.39,3.93c-0.14-1.26-0.14-2.53-0.14-3.65c-0.42-0.56-0.7-1.26-0.98-1.96c0.42,0.42,0.7,0.84,1.12,1.26
		c0.14,0.56,0.42,1.12,0.14,1.54c0.56,0.42,0.84,1.12,0.98,1.82c-0.14,0-0.7-0.14-0.84-0.14c0.14,0.56,0.56,1.26,0.84,1.82
		c0,0.28-0.14,0.56-0.14,0.84c0.14,0,0.7,0.14,0.84,0.28c-0.28,0.14-0.56,0.28-0.84,0.42c0,0.14-0.14,0.42-0.14,0.56
		c0.42,0,0.7,0.14,1.12,0.14c-0.42,0.42-1.12,0.56-1.54,0.56c-0.14,0.28-0.28,0.56-0.42,0.84c-0.28,0-0.56,0.14-0.7,0.14
		c0,0.14-0.14,0.42-0.14,0.56c0.28,0,0.56,0,0.84,0c0,0.28-0.14,0.56-0.14,0.84c0.42,0.14,0.84,0.42,1.4,0.56
		c-0.14,0.56-0.28,1.26-0.56,1.82c0.28,0,0.56,0.14,0.84,0.14c0.14,0.7,0.56,1.4,1.26,1.68c-0.14,0.28-0.42,0.56-0.56,0.84
		c0.84,0,1.82-0.14,2.67-0.42c0.28,0.56,0.56,1.26,0.7,1.96c-0.42-0.42-0.98-0.7-1.54-0.84c-0.42,0-0.7-0.14-0.98-0.14
		c-0.14,0.14-0.42,0.42-0.42,0.42c-1.54-0.14-2.81,0.7-4.35,0.98c-0.56,0-1.12,0.28-1.68,0.56c0,0.28,0,0.56,0,0.7
		c-1.4,0.28-2.1,1.82-3.51,2.39c-0.98,0.7-2.25,0.56-3.09,1.4c0.42,0.28,0.7,0.56,1.12,0.84c-1.12,0.42-2.39,0.7-3.65,0.84
		c0.28,0.14,0.56,0.42,0.84,0.56c0,0.28,0,0.56,0,0.84c-0.7-0.42-1.4-0.7-1.96-1.12c0.14-0.7-0.42-1.54,0-2.25
		c-0.7-0.28-1.82-0.56-2.25,0.42c-0.56,1.12-1.82,1.68-2.95,1.96c0-0.56-0.14-0.98-0.14-1.4v-0.14c0.14-0.14,0.28-0.28,0.42-0.42
		c0-1.54,0.98-2.95,1.4-4.35c0.42-0.84,0.56-1.82,1.12-2.67c0.56-0.56,1.26-0.7,1.96-0.98c0.42-0.42,0.84-0.84,1.26-1.4
		c0-0.28,0-0.56-0.14-0.84c0.56-0.42,1.12-0.7,1.54-1.12c-0.42-0.56-0.84-0.98-1.12-1.54c0.56-0.84,0.98-1.82,0.84-2.95
		c0.42-0.14,0.7-0.14,1.12-0.28c0.14-0.14,0.28-0.42,0.42-0.56c-0.42-0.14-0.7-0.14-1.12-0.28c-0.28-1.12-0.7-2.25-0.84-3.37
		c-0.14-0.28-0.42-0.56-0.56-0.7c0.42-0.84,0.84-1.82,1.26-2.67c-0.14-0.14-0.42-0.28-0.56-0.42
		C52.09,233.13,50.97,232.56,50.69,231.58z"/>
	<path id="XMLID_48_" class="st1" d="M28.51,231.44c0.14-0.42,0.28-0.7,0.42-1.12c0.42,0.14,0.7,0.28,0.98,0.42c0,0.42,0,0.84,0,1.4
		c-0.42,0-0.84,0-1.26,0.14v-0.42c0.56,0,0.84-0.14,0.84-0.7C29.21,231.16,28.79,231.3,28.51,231.44z"/>
	<path id="XMLID_49_" class="st2" d="M31.74,230.88"/>
	<path id="XMLID_50_" class="st0" d="M40.16,231.16c0.98,0.14,1.96,0.14,2.81-0.14c0.14,0.14,0.14,0.42,0.28,0.56
		c-0.42,0.14-0.84,0.14-1.26,0.28c0,0.28,0,0.84,0,1.12c0.42-0.14,0.84-0.14,1.26-0.28c0,0.14,0.14,0.42,0.14,0.56
		c-0.42,0-0.7,0-0.98,0c0.14,0.84,0.98,0.84,1.54,1.26c0,0.56,0,1.26,0,1.82c-0.56,0.14-1.4,0.14-1.68,0.84
		c-0.14,0.42,0.14,0.7,0.14,1.12c-0.42,0.7-0.84,1.26-1.12,1.96c-0.28,0.14-0.56,0.28-0.84,0.42c0.28,0.28,0.56,0.42,0.84,0.7
		c-0.28,0.84-0.7,1.82-0.84,2.81c0.28-0.14,0.7-0.28,0.98-0.42c0.84,1.12,0.56,2.53,0,3.79c-0.7,0-1.26,0-1.96-0.14
		c0,0.14-0.14,0.56-0.14,0.7c-0.56,0.14-0.98,0.28-1.4,0.56c0-0.14-0.14-0.28-0.14-0.42c-0.42,0.14-0.7,0.14-0.98,0.28
		c-0.56-0.56-1.12-0.84-1.82-0.42c-0.42-0.14-0.7-0.28-0.98-0.42c0,0.42,0,0.7,0,0.98c-0.56-0.42-0.98-0.7-1.54-0.98
		c-0.28,0.42-0.7,0.84-0.98,1.26c0.42,0.14,0.84,0.28,1.26,0.42c-0.42,0.14-0.7,0.42-1.12,0.56c0,0.42,0,0.84,0,1.26
		c-0.14,0-0.7-0.14-0.84-0.14l-0.28-0.14c-0.14,0-0.28-0.14-0.42-0.14c-0.14-0.7-0.28-1.4-0.42-1.96c0.56-0.14,1.26-0.14,1.82-0.28
		c-0.7-0.56-1.26-1.26-1.54-1.96c0.98,0.28,2.1,0.7,2.95,0c0.7,0.28,1.26,0.7,1.96,0.98c0.42-0.14,0.84-0.14,1.26-0.28
		c-0.28-0.14-0.56-0.42-0.7-0.7c-0.14-0.7-0.42-1.54-0.7-2.25c-0.28,0.28-0.56,0.56-0.84,0.98c-0.42-0.28-0.7-0.56-1.12-0.84
		c-0.42,0.28-0.7,0.7-0.98,0.98c0.14,0.14,0.28,0.42,0.42,0.7c-0.42,0-0.7,0.14-1.12,0.14c-0.14-0.14-0.28-0.42-0.42-0.56
		c0.28-0.28,0.56-0.7,0.84-0.98c-0.56-0.56-1.12-1.26-1.82-1.82c-0.56-0.14-1.12-0.14-1.54-0.14c0.14,0,0.7-0.14,0.84-0.14
		c0-0.42,0-0.84,0-1.26c0.42,0.28,0.84,0.56,1.26,0.84c0-0.56,0.14-1.12,0.14-1.68c-0.42,0-0.84,0-1.4,0l0.14-0.14
		c0.98-0.7,2.1-0.84,3.23-0.14c0.28-0.14,0.56-0.28,0.7-0.56c0-0.42,0-0.7,0-1.12c0.28,0.14,0.56,0.28,0.84,0.42
		c0.28-0.42,0.56-0.84,0.84-1.26c-0.28-0.28-0.56-0.56-0.98-0.7c0.14-0.28,0.42-0.56,0.56-0.7c0-0.28,0-0.56-0.14-0.7
		c0.42-0.28,0.7-0.56,1.12-0.84c0-0.42-0.14-0.84,0-1.26c0.42-0.56,1.12-0.7,1.68-0.98c0.14,0.14,0.28,0.56,0.42,0.7
		c0.14,0,0.28-0.14,0.42-0.28c0.42,0.14,0.84,0.42,1.26,0.56c-0.14-0.42-0.42-0.7-0.56-0.98c0.7-0.42,1.54-1.26,2.25-0.56
		C40.02,232,40.16,231.58,40.16,231.16z"/>
	<path id="XMLID_51_" class="st1" d="M132.92,230.74"/>
	<path id="XMLID_52_" class="st2" d="M24.58,232.99c0.7-1.26,2.25-1.54,3.65-1.82c0,0.42,0,0.84,0,1.26
		c-0.28-0.28-0.42-0.56-0.7-0.84c-0.14,1.12-1.54,0.7-2.25,1.12C25.15,232.56,24.86,232.85,24.58,232.99z"/>
	<path id="XMLID_53_" class="st0" d="M115.38,231.72c0.28-0.14,0.56-0.14,0.84-0.28c0,0.28,0.14,0.56,0.14,0.7
		c0.14,0,0.42,0.14,0.56,0.28c0-0.42,0-0.7,0-1.12c0.98,0.56,2.1,0.98,3.23,0.56c0.14,0.14,0.42,0.42,0.56,0.56l-0.28,0.14
		c-0.14,0.56-0.14,0.98-0.14,1.54c0.14,0.28,0.42,0.56,0.56,0.7c-0.56,0-1.26,0.14-1.82,0.14c-0.56,0.7-1.12,1.54-1.68,2.25
		c-0.14,0-0.42,0.14-0.42,0.28c-0.7,0.14-1.26,0.28-1.96,0.42c0,0.56,0,1.12,0,1.54c0,0.14,0,0.42,0,0.7
		c-0.84,0.84-1.68,1.82-2.53,2.81c1.4-0.7,2.53-2.39,4.21-1.82c-0.28,0-0.7,0.14-0.84,0.28c-0.14,0.56-0.42,1.26-0.42,1.82
		c-0.14,0-0.56,0-0.84,0c0-0.14,0-0.56,0-0.7c-0.42,0.28-0.7,0.56-0.98,0.84c-0.42,0-0.7,0-0.98,0c-0.28,0.56-0.56,1.12-0.84,1.68
		c-0.28,0.14-0.56,0.28-0.84,0.42l0,0c0,0.14-0.14,0.7-0.14,0.84c-0.28,0.42-0.84,1.12-0.14,1.4c0.56-0.98,1.12-1.96,2.1-2.67
		c0.28,0,0.56-0.14,0.84-0.14c0-0.14-0.14-0.7-0.14-0.84h0.14c0.28,0.14,0.56,0.14,0.98,0.42c0,0.14-0.14,0.56-0.28,0.7
		c0.14,0,0.56,0.14,0.7,0.14c-0.42,0.42-1.12,0.42-1.54,0.98c-0.84,0.56-1.26,1.96-2.53,1.54c-0.14,0.42-0.14,0.84-0.28,1.26
		c-0.14-0.14-0.42-0.42-0.56-0.7c0,0.42,0.28,1.26-0.56,1.12c-0.56-0.14-0.56-0.84-0.7-1.26c0.14-0.14,0.42-0.42,0.56-0.56
		c-0.14,0.14-0.56,0.28-0.7,0.42c0,0.14-0.14,0.7-0.14,0.84c-1.12-0.14,0,0.56,0.14,0.84c-0.7,0.28-0.98,0.84-1.4,1.4
		c-0.14,0-0.56,0-0.84,0.14c-0.56,1.12-1.82,1.82-2.81,2.53c-0.7,0.42-0.14,1.26-0.42,1.96c-0.56,0.56-1.12,0.84-1.68,1.4
		c0.14,0.14,0.28,0.42,0.42,0.56c0,0-0.14,0.14-0.14,0.28c-0.14-0.14-0.42-0.56-0.56-0.7c-0.56-0.42-1.12-0.7-1.54-1.12
		c-0.14,0.42-0.28,0.84-0.42,1.4c-0.42-0.14-0.7-0.28-0.98-0.42c0.14,0.56,0.14,0.98,0.28,1.54c-0.28,0.7-0.7,1.4-0.98,2.1
		c-0.56,0.14-1.12,0.14-1.54,0.28c0,0,0.14,0.14,0.14,0.28c0,0.14-0.14,0.56-0.14,0.7c0.28,0.28,0.56,0.42,0.84,0.42
		c-0.14,0.28-0.14,0.42-0.28,0.7c-0.14,0-0.42,0.14-0.56,0.28c0,0.14-0.14,0.42-0.14,0.42c0-0.14-0.14-0.42-0.14-0.56l-0.14-0.14
		v-0.14c-0.14-0.14-0.56-0.28-0.7-0.42c0,1.26-0.84,2.39-1.54,3.37c-0.28-0.14-0.56-0.28-0.84-0.42c-0.42,0.98-0.7,2.1-0.7,3.23
		c-0.42,0-0.7-0.14-1.12-0.14c-0.28,0.56-0.42,1.12-0.7,1.54c-0.42-0.14-0.7-0.28-1.12-0.42c0,0.28,0.14,0.56,0.14,0.84
		c-0.7,0.42-1.4,0.84-1.4,1.68l0.42,0.14c-0.42,0.14-0.7,0.42-1.12,0.56c0,0.14-0.14,0.7-0.14,0.84l-0.14-0.14
		c-0.14-0.14-0.42-0.42-0.56-0.42c-0.42,0-0.84,0-1.26,0.14c0,0.42,0,0.84-0.14,1.26c-0.7,0.7-1.26,1.54-1.82,2.25
		c-0.7,0.42-1.4,0.7-1.96,0.84c0,0.28,0.14,0.7,0.14,0.98v0.28c-0.14,0-0.42,0.14-0.56,0.28c-0.84,0.42-1.4,1.12-1.96,1.82
		c0.14,0.42,0.28,0.7,0.42,0.98c-0.56,0.7-1.26,1.4-2.25,1.26c-0.56,1.12-1.96,1.4-2.67,2.39c-0.42,0.56-1.12,0.98-1.82,1.4
		c-0.28,1.4-1.82,1.96-2.53,2.95c-1.12,0.7-1.96,1.96-3.37,2.25c0,0.14,0,0.56,0,0.84c-0.98,0.56-2.1,1.12-2.81,1.96
		c-0.56,0.14-1.12,0.14-1.54,0.42c-0.7,0.28-1.26,0.7-1.96,0.98c-0.28,0.14-0.7,0.28-1.12,0.28c-0.56-0.14-1.26-0.28-1.82-0.42
		c0.42-0.14,0.7-0.42,0.98-0.56c0.42,0,0.84,0.28,1.26,0c1.82-1.12,4.21-1.4,5.33-3.23c-1.54,0.56-2.95,1.26-4.35,2.1
		c-0.14-0.28-0.14-0.56-0.28-0.84c0.56-0.56,1.26-0.98,1.68-1.54c0.14,0.28,0.28,0.56,0.42,0.84c0.28-0.28,0.56-0.56,0.98-0.84
		c0.56-0.14,1.12-0.14,1.68-0.28c2.1-0.84,2.95-3.93,5.47-3.93c0-0.28-0.14-0.56-0.14-0.7c0.42-0.42,0.84-0.7,1.26-1.12
		c-0.42,0.14-0.7,0.14-0.98,0.28c0.42-0.7,0.56-1.54,0.56-2.39c-0.56,0.28-0.98,0.7-1.4,1.12c-0.14-0.28-0.14-0.56-0.28-0.84
		c0.42-0.14,0.98-0.28,1.4-0.42c-0.56-0.84-1.54-0.56-2.39-0.7c-0.28,0.28-0.56,0.56-0.84,0.84c0.14,0.28,0.42,0.56,0.56,0.84
		c-1.12-0.7-2.39-0.56-3.51,0c-0.84-0.56-1.54-0.14-2.39,0.14c-0.98,0.14-1.96-0.42-2.95-0.56c-0.56,0.56-1.12,1.12-1.82,1.54
		c0.14-0.42,0.28-0.84,0.42-1.26c0.28,0,0.56,0,0.84,0c0-0.98,0.14-2.1-0.42-2.95c-0.42-1.12-1.82-1.12-2.81-1.12
		c-0.42,0.56-0.84,1.12-1.26,1.54c-0.7-0.14-1.12-0.7-1.26-1.54c-0.14,0.28-0.42,0.56-0.56,0.84c-0.56,0-0.98,0-1.4,0
		c0.84,0.56,1.68,0.84,2.53,1.4c-1.4,0.14-2.53-0.56-3.79-0.7c-0.28-0.14-0.56-0.14-0.84-0.28c0.14-0.28,0.14-0.56,0.42-0.84
		c-0.14-0.98,0-2.1-0.7-2.95c-0.28,0.42-0.56,0.7-0.7,0.98c-0.7,0.14-1.54,0.56-2.1,0.98c-0.42,0-0.84-0.14-1.26-0.14
		c0-0.42,0-0.84,0-1.4c-0.56,0.14-0.98,0.42-1.54,0.7c-0.56-0.14-1.12-0.42-1.54-0.56c0.42-0.28,0.84-0.56,1.26-0.84
		c-0.28,0-0.7-0.14-0.98-0.28c0.56-0.28,1.12-0.56,1.68-0.7c0.28,0,0.7,0.14,0.98,0.14c0-0.14,0.14-0.56,0.28-0.7
		c-0.56,0-1.12-0.14-1.68-0.14c0-0.56-0.14-1.26-0.14-1.82c-0.98,1.12-2.1,2.39-2.1,4.07c-0.56-0.56-1.12-1.12-1.82-1.68
		c-0.14,0.14-0.42,0.42-0.56,0.7c0-0.42,0-0.84,0.14-1.12c0.14,0,0.56,0,0.84,0c-0.14-0.56-0.84-1.12-0.42-1.68
		c0.56-1.12,0.42-2.39,1.12-3.51c0.84-2.1,1.96-4.21,2.81-6.31c0.28-1.68,1.4-3.09,1.82-4.63c0.14-0.56,0.56-1.12,0.84-1.54
		c0,0.42,0.14,0.98,0.14,1.4c1.12-0.42,2.25-0.84,2.95-1.96c0.42-0.84,1.54-0.7,2.25-0.42c-0.42,0.7,0.14,1.54,0,2.25
		c0.7,0.42,1.26,0.7,1.96,1.12c0-0.28,0-0.56,0-0.84c-0.28-0.14-0.56-0.42-0.84-0.56c1.26-0.14,2.53-0.42,3.65-0.84
		c-0.42-0.28-0.7-0.56-1.12-0.84c0.84-0.84,2.1-0.84,3.09-1.4c1.26-0.56,1.96-2.1,3.51-2.39c0-0.28,0-0.56,0-0.7
		c0.56-0.28,1.12-0.56,1.68-0.56c1.54-0.14,2.81-1.12,4.35-0.98c0.14-0.14,0.42-0.42,0.42-0.42c0.42,0,0.7,0.14,0.98,0.14
		c-0.42,0-0.7,0.14-1.12,0.14c0.14,0.14,0.56,0.42,0.7,0.56c0.28,0.7,0.7,1.4,1.26,1.96c0,0.14-0.14,0.42-0.28,0.56
		c-0.98-0.28-2.1-0.56-2.81,0.56c0.28,0.42,0.7,0.84,1.12,1.26c-0.28,0.14-0.84,0.28-1.12,0.28c1.4,0.14,2.25-0.98,3.37-1.68
		c0.14,0.56,0.42,1.12,0.56,1.54c-0.42,0.7-0.84,1.4-0.56,2.1c0.28,0.98,0.28,1.96-0.14,2.95c0-0.14-0.14-0.42-0.14-0.56
		c-0.28,0.14-0.56,0.42-0.7,0.56c-0.28-0.14-0.56-0.42-0.7-0.56c0,0.42,0,0.84,0,1.26c-0.28,0-0.7,0-0.98,0
		c0.14,0.14,0.42,0.42,0.56,0.56c-0.56,0.14-1.12,0.28-1.54,0.42c0-0.42,0-0.7,0-1.12c-0.56,0.14-1.26,0.28-1.82,0.56
		c-0.7-0.14-1.54-0.42-2.25-0.7c-0.14,0-0.28,0.14-0.42,0.14c0.28,0,0.84,0.14,1.26,0.28c-0.56,0.56-1.54,0.56-2.25,0.56
		c-0.14,0.7-0.28,1.4-0.42,2.1c0.56,0.84,1.26,1.54,1.96,2.25c-0.42,0.42-0.84,0.7-1.26,0.84c-0.14-0.28-0.28-0.7-0.42-0.98
		c-0.14,0.7,0,1.54-0.84,1.82c-1.12-0.42-0.84-1.54-0.84-2.39c-0.84-0.14-1.68-0.14-1.96,0.84c0.42,0,0.84,0,1.4,0.14
		c-0.28,0.28-0.56,0.56-0.84,0.84c-0.14-0.14-0.42-0.14-0.56-0.28c-0.14,0-0.56,0.14-0.7,0.28c0.56,0.28,0.98,0.56,1.54,0.84
		c-0.42,0.14-0.7,0.42-1.12,0.56c0.56,0.98,1.4,1.68,2.39,1.82c0.28-0.28,0.56-0.56,0.84-0.84c-0.28-0.56-0.42-1.12-0.7-1.68
		c0.98,0,1.96,0.14,2.95,0.42c-0.56,0.14-0.98,0.42-1.54,0.42c0,0.28-0.14,0.56-0.14,0.84c0.42,0,0.7,0.14,1.12,0.28
		c0.14-0.14,0.28-0.28,0.42-0.42c0,0.14,0.14,0.42,0.14,0.56c-0.28,0.28-0.56,0.56-0.7,0.84c0.7,0,1.4,0,1.96,0.42
		c-0.7,0.28-1.4,0.56-2.1,1.12c-0.14-0.42-0.28-0.7-0.42-0.98c-0.42,0.28-0.7,0.56-1.12,0.84c-0.42,0-0.7,0-1.12,0
		c0.14,0.28,0.42,0.56,0.7,0.84c-0.7,0.14-1.12,0.56-1.12,1.26c0.7-0.28,1.4-0.56,2.1-0.56c0.56-0.84,1.4-1.26,2.25-1.4
		c-0.42,0.7-0.84,1.26-1.26,1.82c1.12,0.28,1.26,1.4,1.4,2.25c0.42,0.14,0.84,0.28,1.4,0.42c0.56-0.42,1.12-0.98,1.4-1.54
		c0.28,0,0.56-0.14,0.7-0.14c0.14-0.56,0.42-1.12,0.7-1.54c0.84-0.42,1.68,0.56,2.25,0.98c0.28-0.14,0.56-0.14,0.7-0.28
		c0.14,0,0.28,0.14,0.42,0.28c0-0.28,0-0.7,0-0.98c0.42,0.14,0.84,0.14,1.26,0.28c-0.28,0.28-0.56,0.56-0.84,0.84
		c0.42,0,0.84,0,1.12,0c0-0.14,0.14-0.56,0.14-0.7c0.28,0,0.56,0,0.84,0.14c0.14-0.28,0.28-0.56,0.42-0.84
		c-0.28-0.28-0.56-0.56-0.7-0.84c-1.26,0.84-2.81,1.12-4.21,0.84c0.14-0.14,0.42-0.42,0.42-0.56c1.4,0,2.67-0.98,3.79-1.68
		c0,0.14,0,0.56,0,0.7c0.42-0.14,0.7-0.28,0.98-0.42c0-0.42,0.14-0.7,0.14-0.98c-0.14-0.14-0.7-0.28-0.84-0.28
		c-0.14-0.14-0.28-0.42-0.42-0.7c-0.98-0.42-2.1-0.56-3.09-0.28c0-0.14,0-0.56,0.14-0.84c0.56-0.56,1.12-0.84,1.82-1.26
		c0,0.42,0,0.7,0,0.98c0.42,0.28,0.84,0.42,1.4,0.7c0.28-0.14,0.56-0.42,0.7-0.7c0.7,0.56,1.54,1.12,2.25,1.82
		c0.28,0.7,0.28,1.4,0.42,2.1c-0.42,0-0.7-0.14-1.12-0.14c0,0.14-0.14,0.42-0.14,0.56c-0.42,0-0.7,0.14-0.98,0.14
		c0.14,0.28,0.42,0.56,0.56,0.84c-0.14,0.14-0.28,0.42-0.42,0.56c0.28,0.42,0.7,0.7,0.98,1.12c-0.14-0.56-0.14-0.98-0.28-1.4
		c0.42,0.14,0.7,0.42,0.98,0.7c0.28-0.7,0.84-1.26,1.4-1.82c-0.14-0.28-0.42-0.56-0.56-0.84c0.7-0.14,1.26-0.42,1.96-0.56
		c-0.42-0.28-0.84-0.56-1.26-0.98c0-0.42,0-0.7,0-1.12c0.14,0.14,0.42,0.56,0.7,0.7c0.14-0.14,0.28-0.28,0.42-0.28
		c0.14,0.28,0.14,0.56,0.28,0.7c0.14-0.42,0.84-0.84,0.7-1.4c-0.42-0.42-0.84-0.7-1.26-1.12c0.14-0.14,0.28-0.28,0.28-0.42
		c-0.56-0.56-1.12-0.98-1.68-1.54c-0.14,0.14-0.28,0.14-0.42,0.28c-0.14-0.14-0.42-0.42-0.56-0.56c-1.26,0.7-2.1,1.82-3.51,2.25
		c0-0.28,0-0.56,0-0.84c-0.98-0.98-2.25-1.68-3.51-2.39c-0.42-0.56-0.7-1.12-1.12-1.68c0.84-0.84,1.54-1.82,1.54-3.09
		c0.14-0.14,0.56-0.28,0.84-0.42c-0.14,0.28-0.14,0.56-0.28,0.84c0.14,0,0.28,0.14,0.42,0.14c-0.14,0.14-0.28,0.42-0.42,0.7
		c0,0.28,0.14,0.56,0.14,0.84c-0.28,0.14-0.56,0.28-0.7,0.42c0.14,0.14,0.14,0.28,0.28,0.42c-0.14,0.28-0.14,0.56-0.42,0.84
		c0.56,0.14,0.98,0.28,1.4,0.42c0.56-0.28,1.12-0.56,1.82-0.7c0.14-0.14,0.28-0.42,0.42-0.42c-0.42,0.14-0.7,0.14-1.12,0.28
		c0.28-0.7,0.42-1.4,0.42-2.25c0.14-0.14,0.42-0.14,0.56-0.14c0.14-0.28,0.28-0.42,0.42-0.7c0.14,0,0.56-0.14,0.7-0.28
		c0.42-0.28,0.7-0.56,1.12-0.84c-0.14,1.12-0.7,2.39,0,3.51c-0.7-0.14-1.4-0.28-2.1-0.42c0.7,0.42,1.54,1.26,2.53,1.12
		c0.42-0.42,0.42-1.12,0.56-1.54c-0.42-0.28-0.84-0.56-1.26-0.84c0.42,0,0.7-0.14,1.12-0.14c-0.14-0.14-0.56-0.42-0.84-0.56
		c1.26-0.56,2.53-1.12,3.79-1.26c1.4-0.14,2.39-1.26,3.65-1.4c-0.14-0.28-0.42-0.56-0.56-0.7c1.12-0.14,2.1-0.42,3.09-0.84
		c0-0.56,0-1.26,0-1.82c-0.56,0.28-1.26,0.56-1.82,0.84c0-0.14-0.14-0.42-0.14-0.56c-0.14-0.14-0.56-0.14-0.7-0.28
		c0-0.14,0-0.42,0-0.7c0.56,0,0.98-0.14,1.4-0.14c-0.14-0.14-0.28-0.42-0.42-0.56c0.98-0.28,2.1-0.14,2.95,0.42
		c0,0.14,0,0.42,0,0.56c0.56,0.28,0.98,0.56,1.54,0.84c0,0.42-0.14,0.84-0.14,1.4c0.84-1.12,1.4-2.1,2.25-3.23
		c0.42,0,0.84-0.14,1.12-0.14c0-0.42,0-0.7,0-1.12c-0.84,0.42-1.54,0.98-1.96,1.82c-0.28,0.56-0.98,0.7-1.54,0.84
		c0-0.84,0.14-1.82,0.14-2.67c0.28-0.42,0.56-0.7,0.84-0.98c-0.56-0.14-1.12-0.14-1.68-0.28c0.7-1.96,2.81-2.53,4.35-3.51
		c1.4-0.7,2.25-2.25,3.65-2.95c0.14,0.14,0.28,0.7,0.42,0.84c1.12,0.42,2.1,0.56,3.23-0.14c-0.14-0.14-0.56-0.56-0.7-0.7
		c0.14-0.28,0.42-0.42,0.56-0.7c0.14,0.28,0.42,0.7,0.56,0.84c0-0.28,0.14-0.56,0.14-0.7c-0.84-0.98,0-1.96,0.42-2.95
		c0.56,0.56,0.98,1.12,1.54,1.54c0.7-0.28,1.4-0.56,2.25-0.7c0.14-0.56,0.14-1.12,0.28-1.54c-0.42,0-0.7-0.14-1.12-0.14
		c0.42-0.28,0.84-0.56,1.26-0.7c0.14,0.28,0.28,0.7,0.42,0.98c1.26-1.26,3.37-1.4,3.93-3.23c0.7,0,1.4,0.14,2.1,0.14
		c0.28-1.12,0.84-2.1,1.82-2.67c0.56,0,1.26,0.42,1.54-0.28c0.56-0.98,0.98-2.1,1.54-2.95c0.56-0.14,1.12-0.14,1.68-0.28
		C115.66,232.56,115.52,232.14,115.38,231.72z"/>
	<path id="XMLID_54_" class="st1" d="M131.94,231.86c0.56-0.42,0.98,0.56,0.56,0.84C131.94,232.99,131.38,232.14,131.94,231.86z"/>
	<path id="XMLID_55_" class="st4" d="M138.95,232.71c-0.7-0.28-0.14-1.12,0.42-0.42C139.09,232.42,138.95,232.71,138.95,232.71z"/>
	<path id="XMLID_56_" class="st1" d="M21.92,233.69c0.84-0.42,1.54-0.84,2.53-0.7c-0.14,0.42-0.42,0.7-0.56,0.98
		c-1.12-0.28-1.82,0.42-2.53,1.12c-0.56,0.14-0.98,0.42-1.4,0.7c-0.84,0.14-1.54,0.56-2.25,0.98c-0.14-0.14-0.42-0.14-0.56-0.28
		C18.69,235.23,20.37,234.53,21.92,233.69z"/>
	<path id="XMLID_57_" class="st3" d="M120.43,233.97c-0.14-0.56-0.14-0.98,0.14-1.54c0.42,0.42,0.7,0.84,0.98,1.26
		C121.13,233.83,120.71,233.97,120.43,233.97z"/>
	<path id="XMLID_58_" class="st0" d="M123.24,232.71c0.56-0.28,0.84,0.56,0.28,0.7C123.1,233.69,122.68,232.85,123.24,232.71z"/>
	<path id="XMLID_59_" class="st1" d="M126.46,232.71c0.42,0.28,0.42,0.42,0,0.7C126.04,233.13,126.04,232.99,126.46,232.71z"/>
	<path id="XMLID_60_" class="st4" d="M135.3,233.69c1.12-0.42,2.1-0.7,3.23-0.84c-0.14,0.14-0.28,0.42-0.42,0.56
		c-0.7,0.28-1.82,0.28-2.1,1.26c-0.14,0-0.42,0-0.56,0c0,0.14,0,0.28,0,0.42l0.98-0.28c-0.42,0.56-0.84,0.84-1.4,1.12
		C135.16,235.09,135.16,234.39,135.3,233.69z"/>
	<path id="XMLID_61_" class="st0" d="M93.49,235.93c1.96-0.14,3.09-2.25,5.05-2.53c0,0.14,0,0.42,0.14,0.56
		c-0.56,0.98-1.68,1.4-2.53,2.1c-0.14,0.42-0.28,0.7-0.42,0.98c-0.56,0.14-1.26,0.28-1.82,0.56c-0.42,0.28-0.7,0.56-0.98,0.84
		c-0.7,0.28-1.4,0.56-2.1,0.84c0.14,0.14,0.28,0.42,0.42,0.56c0.56-0.14,1.26-0.28,1.82,0c-0.42,0-0.84,0.84-0.28,0.84
		c0.14,0,0.42-0.14,0.56-0.14c0,0.14,0.14,0.42,0.14,0.56c-0.14,0.28-0.42,0.42-0.56,0.7c0-0.14,0-0.56,0-0.7
		c-0.14,0-0.56,0.14-0.7,0.28c0,0.14,0,0.56,0,0.84c-0.14,0.14-0.42,0.28-0.56,0.42c-1.4,0.14-2.1,1.4-2.67,2.53
		c-0.84,0.28-1.54,0.84-2.25,1.4c-0.14-0.14-0.28-0.42-0.42-0.56c-0.42,1.12-1.26,1.96-2.25,2.67c-0.56-0.14-1.12-0.28-1.54-0.42
		c0.42-0.42,0.84-0.7,1.26-1.12c0.42-0.14,0.7-0.14,1.12-0.28c-0.14-0.14-0.28-0.56-0.42-0.7c0.14-0.98,0.98-1.96,0.56-2.95
		c-0.42,0.14-0.84,0.42-1.12,0.56c0,0.14,0,0.42-0.14,0.56v-0.42c0-0.14,0-0.56,0-0.7c0.14,0,0.56,0,0.7,0
		c0.14-0.28,0.28-0.56,0.42-0.98c0.42-0.14,1.12,0,1.26-0.42c0.56-0.98,1.82-1.26,2.39-2.1c0.42-0.14,0.84-0.28,1.26-0.42
		c0.28-0.42,0.56-0.84,0.7-1.4c0.14,0,0.42,0.14,0.42,0.28c0.56-0.42,1.26-0.84,1.82-1.26C93.35,236.35,93.49,236.07,93.49,235.93z"
		/>
	<path id="XMLID_62_" class="st6" d="M466.35,236.92c5.47-2.81,11.79-3.51,17.96-3.51c8.84-0.14,17.82,1.68,25.26,6.6
		c-0.28,0.7-0.84,1.12-1.26,1.68c-1.4,1.54-2.81,3.09-4.21,4.49c-6.17-3.37-13.33-4.91-20.35-4.77c-3.93,0-7.86,0.14-11.51,1.54
		c-1.68,0.7-3.51,1.96-3.37,3.93c-0.14,1.82,1.54,3.09,3.23,3.51c3.93,1.12,8.14,1.12,12.21,1.54c3.93,0.28,7.86,0.56,11.65,1.26
		c3.65,0.56,7.58,1.4,10.81,3.37c2.53,1.4,4.35,3.79,4.91,6.6c0.7,3.37,0.42,7.16-1.4,10.1c-1.54,2.53-3.93,4.35-6.6,5.75
		c-5.33,2.53-11.37,3.09-17.12,3.23c-10.24,0-20.91-1.82-29.33-8.14c1.54-2.25,3.23-4.35,4.91-6.46c8.7,5.89,19.65,7.58,29.89,6.31
		c2.81-0.42,5.61-1.12,7.86-2.67c1.4-1.12,2.53-2.81,2.39-4.63c-0.14-1.82-1.54-3.23-3.09-3.93c-2.53-1.12-5.19-1.54-7.86-1.68
		c-4.91-0.42-9.82-0.42-14.73-0.84c-3.79-0.42-7.72-0.84-11.23-2.53c-2.25-0.98-4.21-2.67-5.33-4.91c-1.12-2.25-1.12-4.91-0.7-7.3
		C460.17,241.55,462.98,238.74,466.35,236.92z"/>
	<path id="XMLID_63_" class="st3" d="M126.89,233.97c0.42,0.14,0.7,0.42,1.12,0.7c-0.7,0.98-1.82,1.82-2.67,2.67
		c-0.14,0-0.28,0-0.42,0c-0.14,0-0.7,0-0.84,0C125.06,236.35,125.9,235.09,126.89,233.97z"/>
	<path id="XMLID_64_" class="st3" d="M134.18,234.25c0.42-0.42,0.7,0.42,0.42,0.56C134.18,235.23,133.76,234.39,134.18,234.25z"/>
	<path id="XMLID_65_" class="st0" d="M60.51,236.49c-0.42-0.56-1.12-1.12-0.84-1.82c0.42,0.42,0.84,0.7,0.98,1.12
		C60.65,235.93,60.51,236.21,60.51,236.49z"/>
	<path id="XMLID_66_" class="st6" d="M160.85,281.26c0-15.58,0-31.15,0-46.59c4.49,0,8.98,0,13.61,0
		c10.52,12.91,21.05,25.82,31.57,38.73c0.14-12.91,0-25.82,0-38.73c3.09,0,6.03,0,9.12,0c0,15.58,0,31.15,0,46.59
		c-4.49,0-8.98,0-13.47,0c-0.56-0.28-0.84-0.84-1.26-1.4c-8.42-10.38-16.84-20.63-25.26-31.01c-1.82-2.1-3.37-4.21-5.19-6.31
		c-0.14,12.91,0,25.82,0,38.73C166.88,281.26,163.79,281.12,160.85,281.26z"/>
	<path id="XMLID_67_" class="st6" d="M281.95,234.67c17.82,0,35.78,0,53.61,0c0,2.81,0,5.47,0,8.28c-7.44,0-14.88,0-22.31,0
		c0,12.77,0,25.54,0,38.31c-2.95,0-6.03,0-8.98,0c-0.14-11.37,0-22.59,0-33.96c0-1.4,0.14-2.95-0.14-4.35c-7.44,0-14.73,0-22.17,0
		C281.95,240.14,281.95,237.34,281.95,234.67z"/>
	<path id="XMLID_68_" class="st6" d="M345.66,234.53c3.09,0,6.03,0,9.12,0c0,15.58,0,31.15,0,46.59c-2.25,0-4.49,0-6.74,0
		c-0.84,0-1.68,0.14-2.53-0.14C345.66,265.54,345.52,250.11,345.66,234.53z"/>
	<path id="XMLID_69_" class="st6" d="M365.73,234.53c3.79,0,7.58,0,11.51,0c4.91,4.91,9.96,9.82,14.88,14.73
		c0.98,0.84,1.82,1.96,2.95,2.67c5.89-5.75,11.65-11.65,17.54-17.4c3.79,0,7.58,0,11.51,0c-7.3,7.3-14.73,14.31-22.03,21.61
		c-0.42,0.42-0.98,0.84-1.26,1.4c4.35,4.35,8.84,8.56,13.19,12.91c2.81,2.81,5.61,5.61,8.56,8.28c0.7,0.7,1.68,1.4,2.1,2.25
		c-3.79,0-7.58,0-11.37,0c-5.89-5.89-11.93-11.79-17.96-17.68c-0.28-0.42-0.7-0.42-0.98-0.14c-5.19,5.05-10.24,10.1-15.44,15.16
		c-0.98,0.84-1.68,1.82-2.67,2.53c-3.79,0-7.58,0-11.37,0c4.49-4.49,9.12-8.84,13.61-13.33c3.51-3.51,7.02-6.88,10.52-10.24
		C381.3,249.97,373.45,242.25,365.73,234.53z"/>
	<path id="XMLID_70_" class="st6" d="M436.88,237.76c0-1.12-0.14-2.1,0.14-3.09c2.95,0,6.03,0,8.98,0c0,15.58,0,31.15,0,46.59
		c-2.95,0-6.03,0-8.98,0c-0.14-0.42-0.28-0.7-0.14-1.12C436.88,265.96,436.88,251.79,436.88,237.76z"/>
	<path id="XMLID_71_" class="st4" d="M120.85,235.65c0.42,0,1.12,0,1.54,0c-0.56,0.7-1.12,1.12-1.82,1.54c-0.14,0-0.56,0-0.7,0
		c0.14-0.14,0.56-0.56,0.7-0.7h-0.42c0.56-0.14,1.12-0.28,1.68-0.42L120.85,235.65z"/>
	<path id="XMLID_72_" class="st1" d="M130.67,235.79c0.14,0,0.7,0.14,0.84,0.14c-0.42,0.56-1.12,1.12-1.68,1.4
		C130.11,236.92,130.39,236.35,130.67,235.79z"/>
	<path id="XMLID_73_" class="st2" d="M14.76,238.04c0.42-0.7,1.26-1.4,2.1-1.54c0,0.42-0.14,0.7-0.14,1.12c-0.42,0-0.7,0-0.98,0
		c-0.14,0.28-0.14,0.7-0.28,0.98c-0.14,0-0.42-0.14-0.56-0.14c-0.42,0.28-0.84,0.7-1.12,0.98c0-0.28,0-0.7,0-0.98
		C13.92,238.18,14.34,238.18,14.76,238.04z"/>
	<path id="XMLID_74_" class="st4" d="M46.05,236.35c0.56,0.28,0.84,0.56,1.12,1.12c-0.7,0.14-1.4,0.42-2.1,0
		C45.35,237.06,45.63,236.63,46.05,236.35z"/>
	<path id="XMLID_75_" class="st3" d="M96.71,237.48c0-0.14-0.14-0.42-0.14-0.56c0.14,0.14,0.28,0.42,0.28,0.56h0.42
		c-0.14,0.56-0.42,0.98-0.56,1.54c-0.28,0.14-0.56,0.42-0.7,0.7c0-0.56-0.14-1.12-0.14-1.54C96.01,237.9,96.29,237.76,96.71,237.48z
		"/>
	<path id="XMLID_76_" class="st0" d="M98.12,238.6c0.14-0.7,0.56-1.68,1.4-1.4C100.36,238.04,98.82,238.6,98.12,238.6z"/>
	<path id="XMLID_77_" class="st2" d="M131.94,236.92c0.42,0.42,0.7,0.7,1.26,0.7c0,0.14-0.14,0.42-0.14,0.42
		c-0.28-0.14-0.56-0.42-0.84-0.56c-0.14,0.42-0.28,0.98-0.42,1.4c-0.14,0-0.7,0-0.84,0c0.14-0.42,0.56-0.7,0.84-1.12
		C131.66,237.62,131.8,237.2,131.94,236.92z"/>
	<path id="XMLID_78_" class="st1" d="M115.1,238.04c0.7-0.14,1.26-0.28,1.96-0.42c-0.56,0.84-1.12,1.54-1.96,2.1
		C115.1,239.02,115.1,238.46,115.1,238.04z"/>
	<path id="XMLID_79_" class="st0" d="M97.28,237.62c0.14,0,0.7,0,0.84,0c0,0.28,0,0.84,0,1.12c-0.56,0.14-0.98,0.28-1.54,0.42
		C96.85,238.6,96.99,238.04,97.28,237.62z"/>
	<path id="XMLID_80_" class="st2" d="M132.22,239.44c0.98-0.7,2.1-1.4,3.23-1.82c-1.4,0.84-2.81,1.82-4.21,2.67c0-0.14,0-0.7,0-0.84
		C131.38,239.44,131.94,239.44,132.22,239.44z"/>
	<path id="XMLID_81_" class="st1" d="M92.93,238.6c0.42-0.28,0.7-0.56,0.98-0.84c0.14,0.28,0.42,0.7,0.56,0.98
		c-0.7,0.14-1.54,0.42-2.25,0.56C92.36,239.16,92.64,238.74,92.93,238.6z"/>
	<path id="XMLID_82_" class="st1" d="M64.58,239.02c0.14,0,0.7,0.14,0.84,0.14c0.42,1.12,1.12,1.96,1.26,3.23
		c0.42,0,0.84,0,1.26-0.14c-0.42,0.42-0.7,0.84-0.84,1.4c-0.14-0.14-0.42-0.42-0.7-0.7c-0.14,0.84,0.56,1.26,0.98,1.96
		c0,0.56-0.28,1.4,0.28,1.82c0.28,0.28,0.7,0.42,0.98,0.7c-0.28,0-0.84,0-1.12,0c0.56,1.12,0.84,2.25,1.4,3.51
		c-0.84,0.28-1.82,0.42-2.67,0.42c0.14-0.28,0.42-0.56,0.56-0.84c-0.7-0.28-1.12-0.98-1.26-1.68c-0.28,0-0.56-0.14-0.84-0.14
		c0.14-0.56,0.42-1.26,0.56-1.82c-0.42-0.14-0.84-0.42-1.4-0.56c0-0.28,0.14-0.56,0.14-0.84c-0.28,0-0.56,0-0.84,0
		c0-0.14,0.14-0.42,0.14-0.56c0.28,0,0.56-0.14,0.7-0.14c0.14-0.28,0.28-0.56,0.42-0.84c0.56,0,1.12-0.14,1.54-0.56
		c-0.42,0-0.7-0.14-1.12-0.14c0-0.14,0.14-0.42,0.14-0.56c0.28-0.14,0.56-0.28,0.84-0.42c-0.14,0-0.7-0.14-0.84-0.28
		c0-0.28,0.14-0.56,0.14-0.84C65.14,240.14,64.86,239.58,64.58,239.02z"/>
	<path id="XMLID_83_" class="st4" d="M117.06,239.16c0.42-0.28,0.98,0.14,0.98,0.56c-0.14,0.14-0.28,0.28-0.42,0.42
		C117.2,240,116.64,239.58,117.06,239.16z"/>
	<path id="XMLID_84_" class="st2" d="M119.87,240.7c0.14-0.42,0.14-0.84,0.28-1.26c0.42,0.14,0.7,0.42,1.12,0.56
		c0.14,0,0.7,0,0.84,0c0.14,0,0.42,0.14,0.56,0.14c0-0.28,0-0.56-0.14-0.84c0.42,0.14,0.84,0.14,1.26,0.42
		c0,1.12-0.84,1.96-1.68,2.67c0-0.14,0.14-0.7,0.14-0.84c-1.12-0.28-1.68,0.84-2.53,1.4c-0.42,0-0.84,0-1.26,0
		c-0.56,0.56-0.98,1.12-1.54,1.68c-0.56,0.14-1.26,0.56-1.82,0.7c-0.14-0.14-0.42-0.56-0.56-0.7c-0.28-0.14-0.56-0.28-0.98-0.42l0,0
		c0.14,0,0.7-0.14,0.84-0.14c0-0.14,0-0.56,0-0.7c0.14,0,0.56,0,0.84,0c0,0.28,0,0.7,0,0.98c0.56-0.14,1.26-0.14,1.54-0.84
		C117.9,242.53,118.75,241.41,119.87,240.7z"/>
	<path id="XMLID_85_" class="st1" d="M121.27,240c0-0.7,0.98-0.7,0.84,0C121.97,240,121.41,240,121.27,240z"/>
	<path id="XMLID_86_" class="st2" d="M10.83,240.56c0.7-0.56,1.4-0.84,2.25-1.12C12.8,240.56,11.53,240.14,10.83,240.56z"/>
	<path id="XMLID_87_" class="st4" d="M90.4,240c0.56,0.14,1.12,0.56,1.54,0.84c-0.42,0-0.84,0.28-1.26,0
		C90.68,240.7,90.54,240.28,90.4,240z"/>
	<path id="XMLID_88_" class="st1" d="M92.78,240.7c-0.7,0-0.14-0.84,0.28-0.84c0.14,0.14,0.28,0.56,0.42,0.7
		C93.21,240.56,92.93,240.7,92.78,240.7z"/>
	<path id="XMLID_89_" class="st4" d="M14.76,242.95c1.82-0.7,3.65-1.68,5.47-2.53c-0.42,0.84-1.12,1.4-1.96,1.82
		c0.98,1.12,2.53,1.96,4.07,1.4c0.84,0.42,1.4-0.42,1.82-0.84c0.42,0,0.7,0,1.12,0.14c0.14-0.42,0.28-0.7,0.42-0.98
		c0.42,0,0.84,0,1.26,0c0.14-0.42,0.42-0.84,0.56-1.12c0.42,0,0.7,0,1.12,0s0.84,0,1.4,0c0,0.56-0.14,1.12-0.14,1.68
		c-0.42-0.28-0.84-0.56-1.26-0.84c0,0.42,0,0.84,0,1.26c-0.14,0-0.7,0.14-0.84,0.14c0.56,0,1.12,0,1.54,0.14
		c0.7,0.42,1.26,1.12,1.82,1.82c-0.28,0.28-0.56,0.7-0.84,0.98c0.14,0.14,0.28,0.42,0.42,0.56c0.42,0,0.7-0.14,1.12-0.14
		c-0.14-0.14-0.28-0.42-0.42-0.7c0.42-0.28,0.7-0.7,0.98-0.98c0.42,0.28,0.7,0.56,1.12,0.84c0.28-0.28,0.56-0.7,0.84-0.98
		c0.42,0.7,0.7,1.4,0.7,2.25c0.28,0.14,0.42,0.42,0.7,0.7c-0.42,0.14-0.84,0.14-1.26,0.28c-0.7-0.42-1.26-0.7-1.96-0.98
		c-0.84,0.7-1.96,0.28-2.95,0c0.42,0.7,0.84,1.4,1.54,1.96c-0.56,0.14-1.26,0.14-1.82,0.28c0.14,0.7,0.28,1.4,0.42,1.96
		c0.14,0,0.28,0.14,0.42,0.14c0,0.42,0.14,0.84,0.14,1.26c-0.28,0.28-0.7,0.56-0.98,0.7c-0.14,0.42-0.28,0.98-0.42,1.4
		c-0.28-0.14-0.56-0.42-0.84-0.56c-0.14,0.42-0.28,0.84-0.42,1.4c-1.54,0-2.81,0.98-4.21,1.54c0,0.14-0.14,0.42-0.14,0.56
		c-0.42-0.14-0.84-0.14-1.26-0.28c-0.14,0-0.28-0.14-0.42-0.14c-0.14,0.42-0.14,0.84-0.28,1.4c-0.42,0.28-0.98,0.42-1.54,0.56
		c0,0.14-0.14,0.42-0.28,0.42c-0.98,0.28-1.82,0.7-2.53,1.4c0.14,0.14,0.42,0.56,0.42,0.7c-0.7,0.42-1.4,0.84-2.25,0.84
		c-0.56,0.14-1.12,0-1.54,0.42c0-0.84-0.84-0.84-1.4-0.56c-1.26,0.56-2.39-0.7-3.65-0.56c0.42,0.42,0.7,0.7,1.12,0.98
		c-0.42,0.14-0.84,0.42-1.26,0.56c-0.42-0.14-0.84-0.42-1.12-0.56c0.42-0.14,0.7-0.42,0.98-0.56c-0.7-0.14-1.54-0.28-2.1-0.84
		c0.7,0,1.54,0.14,2.25,0.14c-0.28-1.26,1.12-1.68,2.1-1.82c0.28,0.42,0.56,0.7,0.84,1.12c0.42-0.28,0.7-0.56,0.98-0.84
		c0.42,0.14,0.7,0.14,0.98,0.28c0-0.28,0-0.56,0.14-0.7c-0.7-0.56-1.4-1.12-2.1-1.68c0.42-0.42,0.7-0.7,1.12-1.12
		c0.56,1.12,1.26,2.39,2.39,3.09c-0.56,0.42-0.98,0.84-1.26,1.4c0.7-0.14,1.4-0.42,2.1-0.56c-0.14-0.42-0.14-0.84-0.42-1.12
		c-1.12-0.42-1.26-1.4-1.26-2.39c-0.56-0.28-1.26-0.56-1.68-1.12c0.98-0.14,1.96-0.14,2.81-0.14c0.14-0.28,0.42-0.56,0.56-0.84
		c0.14,0.14,0.42,0.28,0.7,0.56c-0.14-0.28-0.14-0.56-0.28-0.84c0.14-0.14,0.42-0.42,0.56-0.7c-1.26-0.42-2.95,0-3.65-1.4
		c-0.14-0.7-0.14-1.4-0.14-2.1c-0.84,0.14-1.68,0.14-2.53,0c0.28-0.14,0.84-0.28,1.12-0.42c-0.7-0.42-1.4-0.7-2.25-0.84
		c0.14,0.42,0.42,0.84,0.7,1.26c-0.56,0.28-1.12,0.56-1.54,0.84c0.14,0.14,0.42,0.56,0.7,0.84c-0.84,0.14-1.54,0-2.25-0.14
		c-0.7,0.56-1.4,0.84-2.1,1.12c0.7,0.84,1.82,0.98,2.67,1.4c-0.84,0.56-1.82,0.56-2.67,0.42c-0.42,0.7-0.84,1.4-1.26,1.96
		c0.14,0.42,0.28,0.84,0.56,1.26c0.56,0.28,1.12,0.42,1.54,0.56c-0.14,0.42-0.42,0.84-0.56,1.26c-1.26-1.12-2.39-2.81-1.82-4.49
		c0.84-2.95,3.37-4.77,5.61-6.6c1.12-0.84,2.1-2.39,3.65-1.96c0-0.42-0.14-0.84-0.14-1.26c0.42,0,0.84,0.14,1.26,0.14
		C13.78,244.77,14.2,243.93,14.76,242.95z"/>
	<path id="XMLID_90_" class="st1" d="M9.15,240.56c0.56,0,0.98,0,1.54,0c-0.56,0.56-1.4,0.84-2.1,1.12
		C8.59,241.41,8.87,240.98,9.15,240.56z"/>
	<path id="XMLID_91_" class="st1" d="M110.61,242.25c0.7-0.56,1.4-1.26,2.25-1.68c-0.28,0.56-0.42,1.12-0.56,1.68
		C111.73,242.53,111.17,242.39,110.61,242.25z"/>
	<path id="XMLID_92_" class="st3" d="M86.47,242.53c0.98-0.28,1.96-0.56,2.53-1.4c0.14,0.14,0.28,0.7,0.42,0.84
		c0.56,0.14,1.12,0,1.4-0.56c-0.28,0.56-0.56,1.12-0.7,1.54c-0.14-0.14-0.42-0.28-0.56-0.42c-0.28,0.42-0.56,0.7-0.7,1.12
		c-0.28,0.14-0.7,0.14-0.98,0.28c0-0.28,0.14-0.84,0.14-1.12c-0.42,0.42-0.84,0.7-1.26,1.12C86.61,243.51,86.47,242.95,86.47,242.53
		z"/>
	<path id="XMLID_93_" class="st3" d="M92.22,241.27c0.14,0,0.56-0.14,0.7-0.28c0,0.14,0,0.56,0,0.7c0,0.56,0,0.98,0,1.4
		c-0.14,0.14-0.42,0.28-0.56,0.28c-0.14-0.42-0.42-0.7-0.56-1.12c0.14-0.14,0.42-0.28,0.56-0.42
		C92.22,241.97,92.22,241.55,92.22,241.27z"/>
	<path id="XMLID_94_" class="st1" d="M123.94,242.95c0.28-0.84,0.98-1.26,1.82-1.4c-0.14,0.56-0.14,1.12-0.42,1.68
		c0.14,0,0.56,0.14,0.84,0.14c-0.84,0.28-1.68,0.56-2.25,1.12c0-0.14,0-0.56,0-0.7c-0.14,0-0.7,0-0.84,0
		C123.38,243.65,123.52,243.37,123.94,242.95z"/>
	<path id="XMLID_95_" class="st4" d="M121.69,243.93c0.7-0.56,1.54-0.98,2.25-1.54c0,0.14,0,0.42,0,0.56
		c-0.28,0.42-0.56,0.7-0.84,0.98c-0.56,0.14-1.12,0.28-1.54,0.42c0-0.28-0.14-0.7-0.14-0.98
		C121.27,243.51,121.55,243.79,121.69,243.93z"/>
	<path id="XMLID_96_" class="st6" d="M229.33,270.17c6.46-11.79,12.91-23.86,19.37-35.64c3.79,0,7.58,0,11.37,0
		c8.28,15.58,16.98,31.01,25.26,46.59c-3.37,0-6.74,0.14-9.96-0.14c-1.82-3.23-3.51-6.6-5.33-9.82c-4.35-0.14-8.7,0-12.91,0
		c-2.81,0-5.75,0-8.7,0c-1.26,0-2.39,0-3.65,0c-2.1,0.14-4.07-0.14-6.17,0.14c-1.82,3.37-3.51,6.6-5.33,9.96c-3.37,0-6.6,0-9.96,0
		C225.26,277.47,227.36,273.96,229.33,270.17z M243.36,262.88c7.3,0,14.73,0.14,22.03,0c-3.65-6.74-7.3-13.61-10.95-20.35
		C250.66,249.26,247.15,256,243.36,262.88z"/>
	<path id="XMLID_99_" class="st3" d="M113.83,243.51c0.42-0.28,0.7-0.56,0.98-0.84c0,0.14,0,0.56,0,0.7c0,0.14,0,0.56,0,0.7
		c-0.14,0-0.7,0.14-0.84,0.14v-0.7H113.83z"/>
	<path id="XMLID_100_" class="st5" d="M12.38,244.21c0.84-0.28,1.54-0.84,2.1-1.54l0.28,0.42c-0.56,0.84-0.98,1.68-1.12,2.67
		c-0.42,0-0.84-0.14-1.26-0.14c0,0.42,0.14,0.84,0.14,1.26c-1.54-0.42-2.53,1.12-3.65,1.96c-2.25,1.82-4.91,3.65-5.61,6.6
		c-0.56,1.68,0.56,3.51,1.82,4.49c0.42,0.42,0.84,0.84,1.26,1.12c0.56,0.56,1.4,0.7,2.1,0.84c-0.42,0.14-0.7,0.42-0.98,0.56
		c-0.56-0.28-1.12-0.28-1.68-0.28v-0.56c0,0.14,0,0.56,0,0.84c-0.7-0.42-1.26-0.84-1.54-1.54c-0.28,0.14-0.56,0.42-0.84,0.56
		c0-0.14,0-0.56,0.14-0.7c-0.7,0-1.4-0.42-1.54-1.12c-0.14,0-0.56,0-0.7-0.14c-0.14-0.42-0.28-0.84-0.42-1.26c-0.14,0-0.7,0-0.84,0
		c0.56-0.28,0.98-0.56,1.4-0.98c0-0.28,0-0.7,0-0.98c0.14-0.14,0.56-0.42,0.7-0.56c0.42-1.26,1.4-2.25,1.82-3.37
		c0.56-0.56,1.12-1.12,1.26-1.96c0.42-0.28,0.98-0.56,1.4-0.7c0.14-0.14,0.28-0.56,0.42-0.7c0.14-0.14,0.56-0.28,0.7-0.42
		c0.42-0.14,0.7-0.56,1.12-0.7c0.14-0.28,0.42-0.7,0.56-0.98c0.84,0,1.26-0.7,1.68-1.26c0.14,0,0.42,0,0.56,0
		C11.67,245.05,12.09,244.63,12.38,244.21z"/>
	<path id="XMLID_101_" class="st3" d="M83.94,243.51c0.42-0.14,0.7-0.42,1.12-0.56c0.42,0.98-0.28,1.96-0.56,2.95
		c0.14,0.14,0.28,0.56,0.42,0.7c-0.42,0.14-0.7,0.14-1.12,0.28c-0.42,0.42-0.84,0.7-1.26,1.12c-0.28,0.14-0.7,0.42-0.98,0.56
		c-0.14-0.28-0.28-0.56-0.42-0.84c0.42-0.14,0.7-0.42,1.12-0.56c0.56-0.28,0.98-0.7,1.26-1.4c0-0.14,0.14-0.42,0.14-0.56
		c0.14-0.42,0.14-0.84,0.28-1.4C83.94,243.93,83.94,243.65,83.94,243.51z"/>
	<path id="XMLID_102_" class="st5" d="M112.85,243.51c0.42,0,0.7,0,0.98,0v0.7l0,0h-0.14c-0.14,0-0.42-0.14-0.56-0.14
		c-0.14,0.7-0.56,1.4-1.12,1.82c-0.14,0-0.7-0.14-0.84-0.14l0,0c0.28-0.14,0.56-0.28,0.84-0.42
		C112.29,244.63,112.57,244.07,112.85,243.51z"/>
	<path id="XMLID_103_" class="st2" d="M81.28,245.48c0.56-0.84,1.26-2.25,2.53-1.82v0.42c0,0.42-0.14,0.84-0.28,1.4
		c0-0.14,0-0.56-0.14-0.7c-1.26,1.4-3.23,2.1-4.49,3.51c-1.82,1.82-4.07,3.23-5.75,5.19c-0.42,0-0.7,0.14-1.12,0.14
		c-0.14,0.28-0.14,0.56-0.42,0.84c-0.14,0-0.42,0.14-0.42,0.14c-0.14,0.14-0.42,0.42-0.56,0.7c-0.28-1.12,0.7-1.68,1.4-2.25
		c0.14,0,0.42-0.14,0.56-0.28c1.12-0.98,2.1-2.1,3.37-2.95c0.56-1.12,1.82-1.4,2.81-2.25C80.01,247.02,80.01,245.19,81.28,245.48z"
		/>
	<path id="XMLID_104_" class="st2" d="M65.56,244.07c0.56-0.14,1.26,1.12,0.56,1.26C65.7,245.19,65.42,244.49,65.56,244.07z"/>
	<path id="XMLID_105_" class="st3" d="M113.13,244.07c0.14,0,0.42,0.14,0.56,0.14c0,0.14,0.14,0.7,0.14,0.84
		c-0.28,0-0.56,0.14-0.84,0.14c-0.98,0.56-1.54,1.54-2.1,2.67c-0.7-0.28-0.14-0.98,0.14-1.4c0-0.14,0.14-0.7,0.14-0.84
		c0.14,0,0.7,0.14,0.84,0.14C112.57,245.33,112.99,244.77,113.13,244.07z"/>
	<path id="XMLID_106_" class="st2" d="M120.01,244.49c0.14-0.14,0.42-0.42,0.42-0.56c0,0.56,0,0.98-0.14,1.4
		c-0.42,0.56-0.98,0.14-1.4,0c0.14-0.14,0.28-0.56,0.42-0.7C119.45,244.63,119.87,244.49,120.01,244.49z"/>
	<path id="XMLID_107_" class="st0" d="M27.81,244.63c0.56,0.28,1.12,0.56,1.68,0.7c0,0.42,0.14,0.84,0.14,1.26
		c-0.7-0.14-1.26-0.28-1.82-0.56C27.81,245.62,27.81,245.19,27.81,244.63z"/>
	<path id="XMLID_108_" class="st2" d="M120.71,246.18c0.14-0.42,0.28-0.84,0.42-1.26c0.28,0.56,0.14,0.98,0.14,1.54
		c-2.53,0.56-4.21,2.81-6.46,4.07c-2.81,1.4-4.77,4.21-7.58,5.61c0.42-0.84,1.4-1.54,1.12-2.53c0.56-0.28,1.12-0.56,1.82-0.56
		c-0.14-1.54,1.54-1.96,2.67-2.81c0.14-0.42,0.14-0.7,0.28-1.12c0.28,0.14,0.42,0.56,0.56,0.84c0.98-0.7,2.67-1.54,2.1-3.09
		c0.14,0,0.28-0.14,0.42-0.28c0,0.14,0.14,0.56,0.28,0.84h0.14c0.14,0,0.56,0.14,0.7,0.14c0.7-0.42,1.26-0.98,1.68-1.54
		C119.59,246.18,120.15,246.18,120.71,246.18z"/>
	<path id="XMLID_109_" class="st0" d="M54.33,246.74c0.56-0.14,0.7,0,0.56,0.56C54.33,247.44,54.19,247.3,54.33,246.74z"/>
	<path id="XMLID_110_" class="st1" d="M80.01,248.42c0.42,0,0.84,0,1.26,0.14c-0.28,0.7-1.26,0.7-1.82,1.12
		c-0.42,0.28-0.7,0.7-0.98,1.12c-0.84,0.28-1.26,1.26-2.25,1.26c0.42-0.84,1.4-0.98,2.1-1.26c0-0.14,0-0.7,0-0.84
		C79.17,249.97,79.59,249.12,80.01,248.42z"/>
	<path id="XMLID_111_" class="st2" d="M5.08,250.39c0.14-1.12,1.4-1.82,2.53-1.82c-0.14,0.14-0.56,0.28-0.7,0.42
		c-0.14,0.14-0.28,0.56-0.42,0.7C6.06,249.83,5.5,250.11,5.08,250.39z"/>
	<path id="XMLID_112_" class="st0" d="M9.57,248.98c0.84,0.14,1.54,0.42,2.25,0.84c-0.28,0.14-0.84,0.28-1.12,0.42
		c0.84,0.14,1.68,0,2.53,0c0,0.7-0.14,1.4,0.14,2.1c0.7,1.26,2.39,0.98,3.65,1.4c-0.14,0.14-0.42,0.42-0.56,0.7
		c0.14,0.28,0.14,0.56,0.28,0.84c-0.14-0.14-0.42-0.28-0.7-0.56c-0.14,0.28-0.42,0.56-0.56,0.84c-0.98,0-1.96,0-2.81,0.14
		c0.42,0.56,1.12,0.84,1.68,1.12c0.14,0.98,0.14,2.1,1.26,2.39c0.14,0.42,0.14,0.7,0.42,1.12c-0.7,0.14-1.4,0.42-2.1,0.56
		c0.28-0.56,0.7-1.12,1.26-1.4c-1.12-0.7-1.82-1.96-2.39-3.09c-0.42,0.42-0.7,0.7-1.12,1.12c0.7,0.56,1.4,1.12,2.1,1.68
		c0,0.28,0,0.56-0.14,0.7c-0.42-0.14-0.7-0.14-0.98-0.28c-0.42,0.28-0.7,0.56-0.98,0.84c-0.28-0.42-0.56-0.7-0.84-1.12
		c-0.98,0.14-2.25,0.56-2.1,1.82c-0.7-0.14-1.54-0.14-2.25-0.14c-0.42-0.42-0.84-0.84-1.26-1.12c0.14-0.42,0.42-0.84,0.56-1.26
		c-0.56-0.14-1.12-0.42-1.54-0.56c-0.28-0.42-0.42-0.84-0.56-1.26c0.56-0.56,0.84-1.26,1.26-1.96c0.98,0.14,1.96,0.14,2.67-0.42
		c-0.98-0.42-1.96-0.56-2.67-1.4c0.84-0.28,1.54-0.7,2.1-1.12c0.7,0.14,1.54,0.28,2.25,0.14c-0.14-0.14-0.42-0.56-0.7-0.84
		c0.56-0.42,0.98-0.7,1.54-0.84C9.99,249.83,9.85,249.4,9.57,248.98z"/>
	<path id="XMLID_113_" class="st0" d="M18.55,249.26c0.14,0.28,0.42,0.56,0.7,0.84c0.42,0,0.84,0.14,1.26,0.14
		c-0.28,0.28-0.56,0.56-0.84,0.84c0.56,0.42,1.26,0.42,1.96,0.42c-0.28,0-0.56,0.14-0.84,0.14c0,0.28,0,0.56,0.14,0.84
		c-0.42,0.14-0.98,0.56-1.4,0.14c0-0.42,0.14-0.7,0.14-1.12C18.69,250.95,18.41,250.11,18.55,249.26z"/>
	<path id="XMLID_114_" class="st3" d="M78.19,252.21c0.28-0.42,0.7-0.84,0.98-1.26c-0.14,0.84-0.84,1.26-1.4,1.82
		c-0.14,0-0.42,0-0.56,0.14c0-0.14,0-0.56,0.14-0.7C77.49,252.07,77.91,252.07,78.19,252.21z"/>
	<path id="XMLID_115_" class="st0" d="M74.82,252.77c0.42-0.14,0.56,0,0.42,0.42C74.82,253.33,74.68,253.19,74.82,252.77z"/>
	<path id="XMLID_116_" class="st1" d="M76.23,252.63c0.84-0.28,0.7,1.12,0,0.98C75.52,253.61,75.66,252.77,76.23,252.63z"/>
	<path id="XMLID_117_" class="st2" d="M16.87,253.05c0.42-0.28,0.7-0.14,0.84,0.28C17.29,253.47,17.01,253.47,16.87,253.05z"/>
	<path id="XMLID_118_" class="st4" d="M60.65,255.3c0.7,0.28,1.4,0.56,2.1,0.7c0.28-0.28,0.7-0.42,1.12-0.56
		c0.14,0.56,0.14,1.12,0,1.68c0,0.14,0.14,0.56,0.28,0.7c-0.14,0.14-0.42,0.14-0.7,0.28c0-0.14,0-0.56,0-0.7
		c-0.42,0-0.84-0.14-1.26-0.14c0.28,0,0.84-0.14,1.12-0.14c-0.56-0.42-1.12-0.7-1.82-0.98c-0.14,0.14-0.42,0.42-0.56,0.56
		C60.79,256.42,60.65,255.86,60.65,255.3z"/>
	<path id="XMLID_119_" class="st2" d="M105.84,256.14c0.28,0.14,0.7,0.14,0.98,0.28c-1.96,1.54-3.93,3.23-5.75,4.91
		c0.28-0.7,0.56-1.4,0.84-2.1c0.42,0,0.7,0,1.12,0c0.14-0.42,0.28-0.7,0.42-0.98c0.14,0,0.56,0,0.7,0c0.42-0.28,0.98-0.56,1.4-0.84
		C105.7,256.84,105.84,256.42,105.84,256.14z"/>
	<path id="XMLID_120_" class="st4" d="M100.22,256.42c0.56,0.42,1.12,0.7,1.54,1.12c-0.7,0.42-1.4,0.56-1.82,1.26
		c0.14,0.28,0.42,0.7,0.56,0.98c-0.84-0.14-1.12,0.7-1.4,1.26c0.56,0.7,0.42,1.4,0.14,2.25c-0.42,0-0.84,0-1.26-0.14
		c0,0.84-0.42,1.68-1.12,2.25c-0.98,0.84-2.1,1.54-2.81,2.81c0-0.42,0-0.7-0.14-1.12c-0.56,0.14-0.98,0.42-1.26,0.98
		c0.14,0.14,0.56,0.42,0.7,0.56c-0.98,0.84-1.82,1.82-2.81,2.67c-0.14-0.14-0.42-0.56-0.56-0.7c-0.28,0.42-0.14,0.84-0.14,1.26
		c-0.14,0.28-0.42,0.56-0.56,0.84c-0.28,0-0.7,0-0.98,0l-0.42-0.14c0-0.84,0.7-1.4,1.4-1.68c0-0.28-0.14-0.56-0.14-0.84
		c0.42,0.14,0.7,0.28,1.12,0.42c0.28-0.56,0.42-1.12,0.7-1.54c0.42,0,0.7,0.14,1.12,0.14c0-1.12,0.14-2.25,0.7-3.23
		c0.28,0.14,0.56,0.28,0.84,0.42c0.7-0.98,1.54-2.1,1.54-3.37c0.14,0.14,0.56,0.28,0.7,0.42v0.14c-0.14,0.14-0.28,0.14-0.42,0.28
		c0,0.56,0.28,1.12-0.42,1.4c0,0.14-0.14,0.56-0.28,0.84c-0.42,0.28-0.42,0.7-0.28,1.26c0.56-0.7,0.98-1.4,1.4-2.1l0.42,0.28
		c-0.14-0.42-0.14-0.84-0.28-1.12c0-0.14,0.14-0.42,0.14-0.42c0.14,0,0.42-0.14,0.56-0.28c0.14-0.28,0.14-0.42,0.28-0.7
		c0.42-0.56-0.28-0.84-0.7-0.98c0,0-0.14-0.14-0.14-0.28c0.56-0.14,1.12-0.14,1.54-0.28c0.42-0.7,0.7-1.4,0.98-2.1
		c-0.14-0.56-0.14-0.98-0.28-1.54c0.42,0.14,0.7,0.28,0.98,0.42C99.94,257.26,100.08,256.84,100.22,256.42z"/>
	<path id="XMLID_121_" class="st1" d="M100.36,261.05c0.7,0.14,0.28,1.54-0.42,1.26C99.8,261.75,99.94,261.19,100.36,261.05z"/>
	<path id="XMLID_122_" class="st5" d="M8.73,261.47c1.26-0.28,2.39,1.12,3.65,0.56c0.56-0.28,1.4-0.42,1.4,0.56
		c-0.7,0-1.4,0.28-2.1,0.7c-1.12,0-2.1-0.14-3.09-0.14c0.42-0.14,0.84-0.42,1.26-0.56C9.43,262.17,9.15,261.75,8.73,261.47z"/>
	<path id="XMLID_123_" class="st2" d="M67.67,261.75c0.28,0.14,0.56,0.42,0.7,0.56c0.28-0.14,0.56-0.42,0.7-0.56
		c0,0.14,0.14,0.42,0.14,0.56l0,0c-0.14,0.14-0.56,0.28-0.84,0.42c0,1.26-0.7,2.25-1.54,3.09c0.42,0.56,0.84,1.12,1.12,1.68
		c1.26,0.7,2.53,1.4,3.51,2.39c0,0.28,0,0.56,0,0.84c1.4-0.56,2.25-1.68,3.51-2.25c0.14,0.14,0.42,0.42,0.56,0.56
		c0.14-0.14,0.28-0.14,0.42-0.28c0.56,0.56,1.12,0.98,1.68,1.54c-0.14,0.14-0.28,0.28-0.28,0.42c0.42,0.42,0.84,0.7,1.26,1.12
		c0.28,0.56-0.42,0.84-0.7,1.4c-0.14-0.28-0.14-0.56-0.28-0.7c-0.14,0.14-0.28,0.28-0.42,0.28c-0.14-0.14-0.42-0.56-0.7-0.7
		c0,0.42,0,0.7,0,1.12c0.42,0.42,0.84,0.7,1.26,0.98c-0.7,0.14-1.26,0.42-1.96,0.56c0.14,0.28,0.42,0.56,0.56,0.84
		c-0.56,0.56-1.12,1.12-1.4,1.82c-0.42-0.28-0.7-0.42-0.98-0.7c0.14,0.56,0.14,0.98,0.28,1.4c-0.42-0.42-0.7-0.7-0.98-1.12
		c0.14-0.14,0.28-0.42,0.42-0.56c-0.14-0.28-0.42-0.56-0.56-0.84c0.28,0,0.7-0.14,0.98-0.14c0-0.14,0.14-0.42,0.14-0.56
		c0.42,0,0.7,0.14,1.12,0.14c-0.14-0.7-0.14-1.4-0.42-2.1c-0.7-0.7-1.4-1.26-2.25-1.82c-0.28,0.14-0.56,0.42-0.7,0.7
		c-0.42-0.28-0.84-0.42-1.4-0.7c0-0.42,0-0.7,0-0.98c-0.56,0.42-1.26,0.7-1.82,1.26c0,0.14,0,0.56-0.14,0.84
		c1.12-0.28,2.1-0.14,3.09,0.28c0.14,0.14,0.28,0.42,0.42,0.7c0.14,0.14,0.7,0.28,0.84,0.28c0,0.28-0.14,0.7-0.14,0.98
		c-0.42,0.14-0.7,0.28-0.98,0.42c0-0.14,0-0.56,0-0.7c-1.26,0.7-2.25,1.68-3.79,1.68c-0.14,0.14-0.42,0.42-0.42,0.56
		c1.4,0.14,2.95,0,4.21-0.84c0.28,0.28,0.56,0.56,0.7,0.84c-0.14,0.28-0.28,0.56-0.42,0.84c-0.28,0-0.56,0-0.84-0.14
		c0,0.14-0.14,0.56-0.14,0.7c-0.42,0-0.84,0-1.12,0c0.28-0.28,0.56-0.56,0.84-0.84c-0.42-0.14-0.84-0.14-1.26-0.28
		c0,0.28,0,0.7,0,0.98c-0.14,0-0.28-0.14-0.42-0.28c-0.28,0.14-0.56,0.14-0.7,0.28c-0.56-0.56-1.4-1.4-2.25-0.98
		c-0.42,0.42-0.56,1.12-0.7,1.54c-0.28,0-0.56,0.14-0.7,0.14c-0.42,0.56-0.84,1.12-1.4,1.54c-0.42-0.14-0.84-0.28-1.4-0.42
		c-0.14-0.98-0.42-2.1-1.4-2.25c0.56-0.56,0.98-1.12,1.26-1.82c-0.84,0.28-1.82,0.56-2.25,1.4c-0.7,0-1.4,0.28-2.1,0.56
		c0-0.7,0.42-1.12,1.12-1.26c-0.14-0.28-0.42-0.56-0.7-0.84c0.42,0,0.7,0,1.12,0c0.42-0.28,0.7-0.56,1.12-0.84
		c0.14,0.42,0.28,0.7,0.42,0.98c0.56-0.56,1.26-0.84,2.1-1.12c-0.56-0.56-1.26-0.42-1.96-0.42c0.28-0.28,0.56-0.56,0.7-0.84
		c0-0.14-0.14-0.42-0.14-0.56c-0.14,0.14-0.28,0.28-0.42,0.42c-0.42-0.28-0.7-0.42-1.12-0.28c0-0.28,0.14-0.56,0.14-0.84
		c0.56-0.14,0.98-0.28,1.54-0.42c-0.98-0.28-1.96-0.42-2.95-0.42c0.14,0.56,0.42,1.12,0.7,1.68c-0.28,0.28-0.56,0.56-0.84,0.84
		c-1.12-0.14-1.96-0.98-2.39-1.82c0.42-0.14,0.7-0.42,1.12-0.56c-0.56-0.28-0.98-0.56-1.54-0.84c0.14,0,0.56-0.14,0.7-0.28
		c0.14,0.14,0.42,0.14,0.56,0.28c0.28-0.28,0.56-0.56,0.84-0.84c-0.42,0-0.84,0-1.4-0.14c0.28-0.84,1.12-0.98,1.96-0.84
		c0.14,0.84-0.14,2.1,0.84,2.39c0.84-0.14,0.7-1.12,0.84-1.82c0.14,0.28,0.28,0.7,0.42,0.98c0.42-0.28,0.84-0.56,1.26-0.84
		c-0.7-0.7-1.26-1.54-1.96-2.25c0.14-0.7,0.28-1.4,0.42-2.1c0.7-0.14,1.68,0,2.25-0.56c-0.28,0-0.84-0.14-1.26-0.28
		c0.14,0,0.28-0.14,0.42-0.14c0.7,0.14,1.54,0.42,2.25,0.7c0.56-0.14,1.26-0.42,1.82-0.56c0,0.42,0,0.7,0,1.12
		c0.56-0.14,1.12-0.28,1.54-0.42c-0.14-0.14-0.42-0.42-0.56-0.56c0.28,0,0.7,0,0.98,0C67.67,262.6,67.67,262.17,67.67,261.75z"/>
	<path id="XMLID_124_" class="st1" d="M96.57,261.61c0.42,0.14,0.98,0.56,0.7,0.98c-0.42,0-0.7-0.14-0.84-0.42
		C96.43,262.03,96.57,261.75,96.57,261.61z"/>
	<path id="XMLID_125_" class="st4" d="M49.98,262.31c0.14,0.14,0.42,0.28,0.56,0.42c-0.14,0.84-0.28,1.68,0.28,2.39
		c-0.28,0-0.56,0-0.84-0.14c-0.56,0.42-0.56,1.4-1.26,1.54c-0.28-0.28-0.42-0.7-0.14-1.12c0.28-0.7,0.14-1.4,0.7-1.96
		c0.28,0.14,0.56,0.42,0.7,0.7C49.98,263.58,49.98,262.88,49.98,262.31z"/>
	<path id="XMLID_126_" class="st3" d="M95.59,263.58c0.14,0,0.28-0.14,0.42-0.28l0.14,0.14c0,0.14,0.14,0.42,0.14,0.56
		c0.14,0.42,0.14,0.84,0.28,1.12l-0.42-0.28c-0.42,0.7-0.84,1.54-1.4,2.1c-0.14-0.42-0.14-0.84,0.28-1.26
		c0-0.14,0.14-0.56,0.28-0.84C95.87,264.7,95.59,264,95.59,263.58z"/>
	<path id="XMLID_127_" class="st4" d="M46.05,263.58c0.7,0,1.54,0.14,2.1,0.42c-0.14,0.14-0.42,0.28-0.56,0.28
		c0.14,0.28,0.42,0.56,0.56,0.84c-0.7,0.84-1.54,1.54-2.53,2.25c0-0.7,0-1.4,0-2.1c0.28-0.28,0.56-0.56,0.7-0.7
		C46.34,264.28,46.19,264,46.05,263.58z"/>
	<path id="XMLID_128_" class="st0" d="M60.79,263.86c0.7,0.14,1.26,0.14,1.96,0.28c-0.14,0.56-0.56,0.84-1.12,0.98
		c0,0.14-0.14,0.56-0.14,0.7c-0.42-0.14-0.7-0.42-1.12-0.42C60.51,264.84,60.65,264.42,60.79,263.86z"/>
	<path id="XMLID_129_" class="st2" d="M90.82,266.24"/>
	<path id="XMLID_130_" class="st2" d="M79.87,267.51"/>
	<path id="XMLID_131_" class="st4" d="M85.07,273.4c0.42,0,0.84,0,1.26-0.14c0.14,0.14,0.42,0.42,0.56,0.42
		c-0.98,0.7-0.7,2.25-1.96,2.95c-0.14-0.28-0.28-0.56-0.42-0.84c0.28-0.42,0.42-0.84,0.42-1.26
		C84.93,274.24,85.07,273.82,85.07,273.4z"/>
	<path id="XMLID_132_" class="st1" d="M39.18,276.35c0.14-0.84,0-2.53,1.26-2.67C40.16,274.66,40.3,276.49,39.18,276.35z"/>
	<path id="XMLID_133_" class="st4" d="M40.44,278.87c-0.14-1.54,1.12-2.81,2.1-4.07c0,0.56,0.14,1.12,0.14,1.82
		c0.56,0,1.12,0.14,1.68,0.14c0,0.14-0.14,0.56-0.28,0.7c-0.28,0-0.7-0.14-0.98-0.14c-0.56,0.28-1.12,0.56-1.68,0.7
		c0.28,0,0.7,0.14,0.98,0.28c-0.42,0.28-0.84,0.56-1.26,0.84c0.56,0.14,1.12,0.42,1.54,0.56c0.56-0.14,0.98-0.42,1.54-0.7
		c0,0.42,0,0.84,0,1.4c0.42,0,0.84,0.14,1.26,0.14c0.7-0.42,1.4-0.84,2.1-0.98c0.28-0.42,0.56-0.7,0.7-0.98
		c0.7,0.84,0.56,1.96,0.7,2.95c-0.14,0.28-0.28,0.56-0.42,0.84c0.14,0.28,0.56,0.28,0.84,0.28c1.26,0.14,2.53,0.98,3.79,0.7
		c-0.84-0.56-1.82-0.84-2.53-1.4c0.56,0,0.98,0,1.4,0c0.14-0.28,0.42-0.56,0.56-0.84c0.14,0.7,0.42,1.26,1.26,1.54
		c0.42-0.56,0.84-1.12,1.26-1.54c0.98,0,2.39,0,2.81,1.12c0.56,0.84,0.42,1.96,0.42,2.95c-0.28,0-0.56,0-0.84,0
		c-0.14,0.42-0.28,0.84-0.42,1.26c0.7-0.42,1.4-0.98,1.82-1.54c0.98,0.14,1.96,0.7,2.95,0.56c0.84-0.42,1.54-0.7,2.39-0.14
		c1.12-0.56,2.39-0.84,3.51,0c-0.14-0.28-0.42-0.56-0.56-0.84c0.28-0.28,0.56-0.56,0.84-0.84c0.84,0,1.82-0.14,2.39,0.7
		c-0.56,0.14-0.98,0.28-1.4,0.42c0.14,0.28,0.14,0.56,0.28,0.84c0.42-0.56,0.84-0.98,1.4-1.12c0,0.84-0.14,1.68-0.56,2.39
		c0.42-0.14,0.7-0.14,0.98-0.28c-0.42,0.42-0.84,0.7-1.26,1.12c0,0.28,0.14,0.56,0.14,0.7c-2.53,0-3.37,2.95-5.47,3.93
		c-0.56,0.14-1.12,0.14-1.68,0.28c-0.28,0.28-0.56,0.56-0.98,0.84c-0.14-0.28-0.28-0.56-0.42-0.84c-0.56,0.56-1.12,1.12-1.68,1.54
		c0.14,0.28,0.14,0.56,0.28,0.84c-0.7,0.42-1.54,0.7-2.25,1.12c-0.42,0.14-0.7,0.28-0.98,0.56c0.56,0.14,1.26,0.28,1.82,0.42
		c-0.56,0.28-1.12,0.56-1.54,0.84c-0.14,0-0.56,0.14-0.7,0.28c0.14,0.14,0.7,0.7,0.84,0.84c-0.84-0.14-1.82,0.14-2.67,0.42
		c-0.28,0.42-0.7,0.7-1.12,0.7c0-0.28-0.14-0.84-0.14-1.12c0.28-0.42,0.56-0.7,0.84-1.12c-0.84-0.56-2.39-0.56-2.53-1.82
		c-0.42,0-0.84,0-1.26,0.14c-0.56-0.14-1.26-0.14-1.96-0.28c-0.84-0.84-1.96-1.54-2.81-2.39c0.14-0.42,0.42-0.7,0.56-1.12
		c0.42,0.28,0.84,0.7,1.26,0.98c0-0.42,0-0.7,0-1.12c0.28-0.14,0.56-0.42,0.84-0.56c-0.7-0.42-1.26-0.84-1.96-1.26
		c-0.14,0.14-0.56,0.28-0.7,0.42c0.28,0.42,0.56,0.84,0.7,1.4c-0.98,0.14-1.54-0.7-1.96-1.4c-0.7,0.42-1.12,1.12-1.26,1.96
		c-0.42-0.42-0.7-0.84-1.12-1.26c0-0.42,0-0.84,0.14-1.26c-0.7,0.28-1.26,0.56-1.96,0.84c-0.28-0.14-0.56-0.28-0.84-0.28
		c-0.7,0.14-0.84,0.84-1.12,1.54c0.28-0.14,0.56-0.42,0.98-0.56c0.28,0.28,0.56,0.56,0.7,0.84c-0.7,0.42-1.4,0.56-2.1,0.7
		c-0.42-0.56-0.7-1.26-0.84-1.96c0.14-0.98,0.84-1.54,1.4-2.25c0.14,0.56,0.56,1.12,0.98,1.4c0.56-0.7,0.7-1.82,1.54-2.1
		c0.7,0.42,0.84,1.4,1.82,1.82c0-0.7,0-1.4,0-1.96c-0.14-0.14-0.42-0.28-0.7-0.42c0-0.28,0-0.56,0-0.84
		c-0.28,0.14-0.56,0.42-0.84,0.56c0,0.14-0.14,0.42-0.14,0.7c-0.42,0.14-0.84,0.14-1.26,0.28c-0.14,0.14-0.56,0.56-0.7,0.7
		c0-0.56,0-1.12,0-1.68c-0.84,0.28-1.4,0.98-1.96,1.54c-0.14,0-0.28,0-0.42-0.14c0.14-0.56,0.28-0.98,0.42-1.54
		c0.28-0.14,0.56-0.28,0.84-0.56c-0.7-0.56-1.4-1.26-1.96-1.82c0-0.56,0.14-1.26,0.14-1.82c0.28-0.14,0.56-0.42,0.98-0.7
		c-0.42-0.56-0.56-1.12-0.56-1.68c0.56,0.14,1.12,0.28,1.68,0.56c0-0.14,0.14-0.56,0.14-0.7c-1.26,0.28-0.84-1.4-0.56-2.1
		c0.14-0.28,0.42-0.42,0.56-0.7C39.18,277.61,39.88,278.17,40.44,278.87z"/>
	<path id="XMLID_134_" class="st3" d="M83.1,276.91c0.7-0.7,1.12-1.54,1.82-2.25c0,0.56,0,0.84-0.42,1.26
		c-0.28,0.42-0.7,0.7-0.98,1.12C83.52,277.05,83.24,276.91,83.1,276.91z"/>
	<path id="XMLID_135_" class="st2" d="M83.66,277.05c0.42-0.42,0.7-0.7,0.98-1.12c0.14,0.28,0.28,0.56,0.42,0.84
		c-1.12,1.12-2.53,1.54-3.79,2.1c0-0.28-0.14-0.7-0.14-0.98c0.7-0.28,1.4-0.56,1.96-0.84C83.24,276.91,83.52,277.05,83.66,277.05z"
		/>
	<path id="XMLID_136_" class="st2" d="M52.65,277.61c0.56,0.14,0.98,0.28,1.54,0.42c-0.14,0.28-0.14,0.56-0.42,0.7
		C53.49,278.31,53.07,278.03,52.65,277.61z"/>
	<path id="XMLID_137_" class="st2" d="M78.75,281.12c0.56-0.7,1.12-1.4,1.96-1.82c-0.14,0.14-0.42,0.56-0.56,0.7
		c0.14,0.14,0.42,0.56,0.56,0.7c-0.42,0.56-1.12,0.84-1.54,1.4C78.89,281.82,78.75,281.54,78.75,281.12z"/>
	<path id="XMLID_138_" class="st0" d="M42.69,280.84c0.14,0,0.7,0,0.84,0c0.14,0.42,0.28,0.84,0.42,1.26
		c-0.28,0.56-0.98,0.84-1.54,1.12c0.28,0.14,0.56,0.42,0.84,0.56c0.28-0.14,0.42-0.42,0.7-0.56c0.14,0,0.42,0.14,0.56,0.28
		c0,0.42,0.14,1.12-0.42,1.26c-0.42,0-0.7-0.14-0.98-0.14c0.28-0.14,0.7-0.42,0.98-0.42c-0.7-0.14-1.54-0.42-2.25-0.56
		c0.14-0.28,0.28-0.56,0.42-0.84c-0.14,0-0.56-0.14-0.84-0.28c0.7-0.42,1.4-0.28,2.1-0.42C43.11,281.68,42.83,281.26,42.69,280.84z"
		/>
	<path id="XMLID_139_" class="st2" d="M78.05,281.68"/>
	<path id="XMLID_140_" class="st1" d="M37.63,283.22c-0.56-0.42,0.14-1.4,0.7-1.26C38.48,282.38,38.06,282.94,37.63,283.22z"/>
	<path id="XMLID_141_" class="st1" d="M36.09,284.35c0.7,0.56,1.4,1.26,1.96,1.82c-0.28,0.14-0.56,0.28-0.84,0.56
		c-0.14,0.56-0.28,0.98-0.42,1.54h-0.14c-0.14-0.14-0.42-0.42-0.42-0.56c0.14-0.42,0.42-0.84,0.56-1.4
		c-0.14,0.14-0.42,0.28-0.56,0.42c0,0.28-0.14,0.7-0.28,0.98c-0.14-0.28-0.28-0.56-0.42-0.84c-0.14-0.42-0.14-0.84-0.14-1.26
		c0.14,0.14,0.56,0.14,0.7,0.28C35.95,285.19,36.09,284.77,36.09,284.35z"/>
	<path id="XMLID_142_" class="st0" d="M41.28,286.73c0.28-0.14,0.56-0.42,0.84-0.56c0,0.28,0,0.56,0,0.84
		c0.14,0.14,0.42,0.28,0.7,0.42c0,0.7,0,1.4,0,1.96c-0.84-0.28-1.12-1.26-1.82-1.82c-0.84,0.42-0.98,1.4-1.54,2.1
		c-0.56-0.42-0.7-0.84-0.98-1.4c-0.56,0.7-1.4,1.26-1.4,2.25c0.14,0.7,0.42,1.4,0.84,1.96c0.42,0.42,0.98,0.84,1.4,1.26
		c-0.42,0-0.84-0.14-1.4-0.14c0.14,0.42,0.42,0.7,0.56,0.98c-0.84-0.14-1.68-0.56-1.68-1.54c0.28,0.14,0.7,0.28,0.84,0.42
		c-0.7-1.4-1.12-2.81-1.4-4.21c0.14,0,0.56,0,0.84,0.14c-0.7-0.28-0.42-0.98-0.42-1.54h0.14c0.14,0,0.28,0,0.42,0.14
		c0.56-0.56,1.26-1.26,1.96-1.54c0,0.56,0,1.12,0,1.68c0.14-0.14,0.56-0.56,0.7-0.7c0.42-0.14,0.84-0.14,1.26-0.28
		C41.14,287.15,41.28,287.01,41.28,286.73z"/>
	<path id="XMLID_143_" class="st0" d="M35.39,286.59c0.14,0.28,0.28,0.56,0.42,0.84c0.28,0.7-0.28,1.26-0.42,1.96
		c-0.56,1.4,0.56,2.81,0.14,4.35c-0.28-0.84-0.56-1.82-0.98-2.67C34.97,289.68,34.41,288,35.39,286.59z"/>
	<path id="XMLID_144_" class="st5" d="M40.3,290.52c0.7-0.28,1.26-0.56,1.96-0.84c0,0.42,0,0.84-0.14,1.26
		c0.42,0.42,0.7,0.84,1.12,1.26c0-0.84,0.42-1.54,1.26-1.96c0.42,0.7,0.98,1.54,1.96,1.4c-0.28-0.42-0.56-0.84-0.7-1.4
		c0.14-0.14,0.56-0.28,0.7-0.42c0.7,0.42,1.4,0.84,1.96,1.26c-0.28,0.14-0.56,0.42-0.84,0.56c0,0.42,0,0.7,0,1.12
		c-0.42-0.28-0.84-0.7-1.26-0.98c-0.14,0.42-0.42,0.7-0.56,1.12c0.84,0.84,1.96,1.54,2.81,2.39c0.7,0,1.26,0.14,1.96,0.28
		c0.42,0,0.84,0,1.26-0.14c0.14,1.26,1.68,1.12,2.53,1.82c-0.28,0.42-0.56,0.7-0.84,1.12l-0.28,0.28c-0.84,0-1.68,0.14-2.53,0.42
		c0-0.56-0.14-1.26-0.14-1.82c0.28-0.14,0.7-0.42,0.98-0.56c-0.56-0.14-1.12-0.14-1.54-0.28c0,0.7,0,1.4-0.28,1.96
		c-0.28-0.14-0.56-0.42-0.7-0.56c-0.42,0.28-0.84,0.56-1.12,0.84c-0.7,0.14-1.82-0.28-1.96,0.7c-0.14-0.14-0.42-0.42-0.56-0.56
		c-1.12-0.14-2.67,0.42-3.51-0.56c0.14-0.14,0.28-0.56,0.42-0.7c0-0.14,0.14-0.28,0.14-0.42c-0.28,0-0.7,0-0.98,0
		c-0.56-0.42-0.98-0.84-1.54-0.98c-0.28-0.56-0.56-1.26-1.26-1.26c-0.14-0.42-0.42-0.7-0.56-0.98c0.42,0,0.84,0.14,1.4,0.14
		c-0.42-0.42-0.98-0.84-1.4-1.26c0.7-0.14,1.54-0.42,2.1-0.7c-0.28-0.28-0.56-0.56-0.7-0.84c-0.28,0.14-0.56,0.42-0.98,0.56
		c0.14-0.56,0.42-1.4,1.12-1.54C39.74,290.38,40.02,290.52,40.3,290.52z"/>
	<path id="XMLID_145_" class="st1" d="M60.37,294.73c1.4-0.84,2.81-1.68,4.35-2.1c-1.26,1.82-3.65,2.1-5.33,3.23
		c-0.42,0.28-0.84,0.14-1.26,0C58.82,295.43,59.67,295.15,60.37,294.73z"/>
	<path id="XMLID_146_" class="st4" d="M39.74,293.19c0.7,0,1.68-0.42,2.1,0.42c-0.28,0-0.7,0.14-0.98,0.14
		c-0.14,0.56-0.42,1.12-0.84,1.4C39.18,294.87,39.6,293.89,39.74,293.19z"/>
	<path id="XMLID_147_" class="st1" d="M59.95,296.42c0.7-0.42,1.26-0.7,1.96-0.98c-0.14,0.42-0.42,0.84-0.7,1.26
		C60.65,296.84,60.37,296.56,59.95,296.42z"/>
	<path id="XMLID_148_" class="st4" d="M37.49,296.42c0.14,0.28,0.14,0.7,0.28,0.98c0.14,0,0.42-0.14,0.56-0.14
		c0.14,0.98,1.4,0.42,1.96,0.42c-0.28-0.14-0.98-0.42-1.26-0.56c0.98,0.14,1.96,0.28,2.81,0.56c-0.14,0.14-0.28,0.56-0.42,0.7
		c-0.14,0-0.28,0.14-0.42,0.28l-0.14,0.42c-1.26,0-2.39-0.7-3.51-1.12C37.49,297.4,37.49,296.84,37.49,296.42z"/>
	<path id="XMLID_149_" class="st4" d="M49.7,296.42c0.56,0,1.12,0.14,1.54,0.28c-0.28,0.14-0.7,0.42-0.98,0.56
		c0.14,0.56,0.14,1.26,0.14,1.82v0.28c-1.12,0.28-2.1,0.42-3.23,0.7c0-0.42,0-0.7,0-1.12c0.56,0,1.12,0,1.68,0c0-0.14,0-0.28,0-0.42
		c-0.56,0-1.12,0-1.68,0c0.42-0.28,0.7-0.56,1.12-0.84c0.28,0.14,0.56,0.42,0.7,0.56C49.7,297.82,49.7,297.12,49.7,296.42z"/>
</g>
</svg>
